<svg width="24" height="24" viewBox="0 0 24 24" fill="none" xmlns="http://www.w3.org/2000/svg">
<g clip-path="url(#clip0_902_6125)">
<circle cx="12" cy="12" r="5.25" fill="white"/>
<circle cx="12" cy="12" r="11.5" fill="#4262FF"/>
<circle cx="12" cy="12.002" r="7.5" fill="white"/>
<path d="M11.4006 8.98211C11.5898 8.40061 12.4125 8.40061 12.6017 8.98211L13.1006 10.515C13.1604 10.6987 13.3009 10.8449 13.482 10.9119L14.8214 11.4075C15.3713 11.611 15.3713 12.3887 14.8214 12.5922L13.482 13.0878C13.3009 13.1549 13.1604 13.3011 13.1006 13.4847L12.6017 15.0176C12.4125 15.5991 11.5898 15.5991 11.4006 15.0176L10.9017 13.4847C10.8419 13.3011 10.7014 13.1549 10.5203 13.0878L9.18082 12.5922C8.63095 12.3887 8.63095 11.611 9.18082 11.4075L10.5203 10.9119C10.7014 10.8449 10.8419 10.6987 10.9017 10.515L11.4006 8.98211Z" fill="#4262FF"/>
</g>
<defs>
<clipPath id="clip0_902_6125">
<rect width="24" height="24" fill="white"/>
</clipPath>
</defs>
</svg>
