<svg width="24" height="24" viewBox="0 0 24 24" fill="none" xmlns="http://www.w3.org/2000/svg">
<path d="M8 4C8 3.44772 8.44772 3 9 3H13.1567C13.4951 3 13.8105 3.17112 13.995 3.45477L15 5H8V4Z" fill="#47B87F"/>
<path d="M1 4.5C1 3.67157 1.67157 3 2.5 3H6.73698C7.01844 3 7.28687 3.11862 7.47637 3.32673L9 5H1V4.5Z" fill="#FFAD01"/>
<path d="M1 5H19.4C20.2837 5 21 5.71634 21 6.6V18.4C21 19.2837 20.2837 20 19.4 20H2.6C1.71635 20 1 19.2837 1 18.4V5Z" fill="#FFAD01"/>
<path d="M3.93066 10.9699C4.18381 10.3838 4.7923 10 5.46852 10H22.2811C23.4566 10 24.259 11.1117 23.8189 12.1307L20.9754 19.0301C20.7222 19.6162 20.1137 20 19.4375 20H2.62496C1.44938 20 0.647002 18.8883 1.0871 17.8693L3.93066 10.9699Z" fill="#FEC600"/>
</svg>
