<svg width="24" height="24" viewBox="0 0 24 24" fill="none" xmlns="http://www.w3.org/2000/svg">
<path fill-rule="evenodd" clip-rule="evenodd" d="M23.0525 11.881C23.0525 5.66799 18.1041 0.631348 11.9999 0.631348C5.8957 0.631348 0.947266 5.66799 0.947266 11.881V19.3808H0.961151C1.12375 21.2613 2.70497 22.737 4.63158 22.737C6.55819 22.737 8.1394 21.2613 8.30201 19.3808H8.33163C8.49423 21.2613 10.0754 22.737 12.0021 22.737C13.9287 22.737 15.5099 21.2613 15.6725 19.3808H15.6972C15.8598 21.2613 17.441 22.737 19.3676 22.737C21.2942 22.737 22.8754 21.2613 23.038 19.3808H23.0525V11.881Z" fill="#4AFF81"/>
<path fill-rule="evenodd" clip-rule="evenodd" d="M9.00378 10.2632C9.83214 10.2632 10.5037 9.59161 10.5037 8.76318C10.5037 7.93476 9.83214 7.26318 9.00378 7.26318C8.17542 7.26318 7.50391 7.93476 7.50391 8.76318C7.50391 9.59161 8.17542 10.2632 9.00378 10.2632ZM15.0001 10.2632C15.8284 10.2632 16.5 9.59161 16.5 8.76318C16.5 7.93476 15.8284 7.26318 15.0001 7.26318C14.1717 7.26318 13.5002 7.93476 13.5002 8.76318C13.5002 9.59161 14.1717 10.2632 15.0001 10.2632Z" fill="#202223"/>
<path fill-rule="evenodd" clip-rule="evenodd" d="M12.0017 13.9254C12.5416 13.9254 12.9792 13.4878 12.9792 12.9479C12.9792 12.408 12.5416 11.9704 12.0017 11.9704C11.4619 11.9704 11.0243 12.408 11.0243 12.9479C11.0243 13.4878 11.4619 13.9254 12.0017 13.9254ZM12.0017 17.0535C14.269 17.0535 16.107 15.2153 16.107 12.9479C16.107 10.6804 14.269 8.84229 12.0017 8.84229C9.73447 8.84229 7.89648 10.6804 7.89648 12.9479C7.89648 15.2153 9.73447 17.0535 12.0017 17.0535Z" fill="#4494FE"/>
</svg>
