<svg width="39" height="39" viewBox="0 0 39 39" fill="none" xmlns="http://www.w3.org/2000/svg">
<path d="M19.75 32.5625C27.6201 32.5625 34 26.1826 34 18.3125C34 10.4424 27.6201 4.0625 19.75 4.0625C11.8799 4.0625 5.5 10.4424 5.5 18.3125C5.5 26.1826 11.8799 32.5625 19.75 32.5625Z" fill="#7B32D8"/>
<path d="M29.25 29H10.25L9.15575 33.9643C8.76064 35.0288 9.6706 36.125 10.9517 36.125H28.5523C29.8334 36.125 30.7314 35.0288 30.3483 33.9643L29.25 29Z" fill="#B4ACBC"/>
<path d="M17.6184 7.93908C17.4759 7.87925 17.3691 7.7596 17.3097 7.62799L16.8584 6.56313C16.7753 6.39562 16.5378 6.39562 16.4547 6.56313L16.0034 7.62799C15.9441 7.77157 15.8372 7.87925 15.6947 7.93908L15.1247 8.2023C14.9584 8.28605 14.9584 8.52535 15.1247 8.6091L15.6947 8.87232C15.8372 8.93215 15.9441 9.0518 16.0034 9.18341L16.4547 10.2483C16.5378 10.4158 16.7753 10.4158 16.8584 10.2483L17.3097 9.18341C17.3691 9.03983 17.4759 8.93215 17.6184 8.87232L18.1884 8.6091C18.3547 8.52535 18.3547 8.28605 18.1884 8.2023L17.6184 7.93908Z" fill="#FCD53F"/>
<path d="M29.3925 13.3292C29.2025 13.2454 29.0481 13.0779 28.965 12.8865L28.3238 11.367C28.205 11.1277 27.8606 11.1277 27.7419 11.367L27.1006 12.8865C27.0175 13.0779 26.8631 13.2454 26.6731 13.3292L25.8656 13.7001C25.6281 13.8197 25.6281 14.1667 25.8656 14.2864L26.6731 14.6573C26.8631 14.741 27.0175 14.9085 27.1006 15.1L27.7419 16.6195C27.8606 16.8588 28.205 16.8588 28.3238 16.6195L28.965 15.1C29.0481 14.9085 29.2025 14.741 29.3925 14.6573L30.2 14.2864C30.4375 14.1667 30.4375 13.8197 30.2 13.7001L29.3925 13.3292Z" fill="#FCD53F"/>
<path d="M15.696 17.161C15.8608 17.5789 16.1683 17.9155 16.5637 18.1012L18.2001 18.879C18.6833 19.1343 18.6833 19.8657 18.2001 20.121L16.5637 20.8988C16.1793 21.0845 15.8608 21.4211 15.696 21.839L14.4001 25.0544C14.1585 25.5652 13.4665 25.5652 13.2249 25.0544L11.929 21.839C11.7642 21.4211 11.4567 21.0845 11.0613 20.8988L9.42493 20.121C8.94169 19.8657 8.94169 19.1343 9.42493 18.879L11.0613 18.1012C11.4457 17.9155 11.7642 17.5789 11.929 17.161L13.2249 13.9456C13.4665 13.4348 14.1585 13.4348 14.4001 13.9456L15.696 17.161Z" fill="#FCD53F"/>
</svg>
