<svg width="24" height="25" viewBox="0 0 24 25" fill="none" xmlns="http://www.w3.org/2000/svg">
<path d="M5.25018 21C4.75441 21 4.32998 20.8235 3.97689 20.4704C3.62381 20.1173 3.44727 19.6929 3.44727 19.1971C3.44727 18.7013 3.62381 18.2769 3.97689 17.9238C4.32998 17.5707 4.75441 17.3942 5.25018 17.3942C5.74595 17.3942 6.17038 17.5707 6.52346 17.9238C6.87655 18.2769 7.05309 18.7013 7.05309 19.1971C7.05309 19.6929 6.87655 20.1173 6.52346 20.4704C6.17038 20.8235 5.74595 21 5.25018 21ZM5.25018 14.3029C4.75441 14.3029 4.32998 14.1264 3.97689 13.7733C3.62381 13.4202 3.44727 12.9958 3.44727 12.5C3.44727 12.0042 3.62381 11.5798 3.97689 11.2267C4.32998 10.8736 4.75441 10.6971 5.25018 10.6971C5.74595 10.6971 6.17038 10.8736 6.52346 11.2267C6.87655 11.5798 7.05309 12.0042 7.05309 12.5C7.05309 12.9958 6.87655 13.4202 6.52346 13.7733C6.17038 14.1264 5.74595 14.3029 5.25018 14.3029ZM5.25018 7.60582C4.75441 7.60582 4.32998 7.42928 3.97689 7.0762C3.62381 6.72311 3.44727 6.29868 3.44727 5.80291C3.44727 5.30714 3.62381 4.88271 3.97689 4.52963C4.32998 4.17654 4.75441 4 5.25018 4C5.74595 4 6.17038 4.17654 6.52346 4.52963C6.87655 4.88271 7.05309 5.30714 7.05309 5.80291C7.05309 6.29868 6.87655 6.72311 6.52346 7.0762C6.17038 7.42928 5.74595 7.60582 5.25018 7.60582ZM11.9473 7.60582C11.4515 7.60582 11.0271 7.42928 10.674 7.0762C10.3209 6.72311 10.1444 6.29868 10.1444 5.80291C10.1444 5.30714 10.3209 4.88271 10.674 4.52963C11.0271 4.17654 11.4515 4 11.9473 4C12.443 4 12.8675 4.17654 13.2205 4.52963C13.5736 4.88271 13.7502 5.30714 13.7502 5.80291C13.7502 6.29868 13.5736 6.72311 13.2205 7.0762C12.8675 7.42928 12.443 7.60582 11.9473 7.60582ZM18.6444 7.60582C18.1486 7.60582 17.7242 7.42928 17.3711 7.0762C17.018 6.72311 16.8414 6.29868 16.8414 5.80291C16.8414 5.30714 17.018 4.88271 17.3711 4.52963C17.7242 4.17654 18.1486 4 18.6444 4C19.1401 4 19.5646 4.17654 19.9176 4.52963C20.2707 4.88271 20.4473 5.30714 20.4473 5.80291C20.4473 6.29868 20.2707 6.72311 19.9176 7.0762C19.5646 7.42928 19.1401 7.60582 18.6444 7.60582ZM11.9473 14.3029C11.4515 14.3029 11.0271 14.1264 10.674 13.7733C10.3209 13.4202 10.1444 12.9958 10.1444 12.5C10.1444 12.0042 10.3209 11.5798 10.674 11.2267C11.0271 10.8736 11.4515 10.6971 11.9473 10.6971C12.443 10.6971 12.8675 10.8736 13.2205 11.2267C13.5736 11.5798 13.7502 12.0042 13.7502 12.5C13.7502 12.9958 13.5736 13.4202 13.2205 13.7733C12.8675 14.1264 12.443 14.3029 11.9473 14.3029ZM13.1924 21V18.0508L19.2518 12.0192C19.3906 11.8875 19.5405 11.7916 19.7014 11.7315C19.8623 11.6714 20.0232 11.6414 20.1841 11.6414C20.3596 11.6414 20.5293 11.6743 20.6934 11.7402C20.8575 11.806 21.0066 11.9048 21.1407 12.0365L22.1732 13.0796C22.2933 13.2184 22.3864 13.3686 22.4522 13.5302C22.5181 13.6921 22.551 13.8538 22.551 14.0155C22.551 14.1772 22.5227 14.3417 22.4662 14.5091C22.4096 14.6766 22.3119 14.8297 22.1732 14.9684L16.1416 21H13.1924ZM20.1878 15.0929L21.2202 14.0155L20.1878 12.9721L19.1274 14.0325L20.1878 15.0929Z" fill="#9C9EA0"/>
</svg>
