<svg width="39" height="39" viewBox="0 0 39 39" fill="none" xmlns="http://www.w3.org/2000/svg">
<path d="M3.8125 20.6875C3.8125 12.8174 10.1924 6.4375 18.0625 6.4375H20.4348C28.3049 6.4375 34.6848 12.8174 34.6848 20.6875V21.875C34.6848 29.7451 28.3049 36.125 20.4349 36.125H18.0625C10.1925 36.125 3.8125 29.7451 3.8125 21.875V20.6875Z" fill="#FF8687"/>
<path d="M30.2091 8.26573L32.8185 11.1278C33.4772 11.848 33.4772 13.0298 32.8185 13.7499L30.2091 16.6028C29.1366 17.7753 27.3125 16.9444 27.3125 15.2917V9.58599C27.3125 7.93336 29.1366 7.10243 30.2091 8.26573Z" fill="#FBB8AB"/>
<path d="M30.1918 7.56103L33.2361 11.1025C34.0046 11.9936 34.0046 13.4559 33.2361 14.347L30.1918 17.8771C28.9406 19.3279 26.8125 18.2997 26.8125 16.2548V9.19469C26.8125 7.14976 28.9406 6.12159 30.1918 7.56103Z" fill="#FBB8AB"/>
<path d="M8.30819 7.56103L5.26385 11.1025C4.49538 11.9936 4.49538 13.4559 5.26385 14.347L8.30819 17.8771C9.55942 19.3279 11.6875 18.2997 11.6875 16.2548V9.19469C11.6875 7.14976 9.55942 6.12159 8.30819 7.56103Z" fill="#FBB8AB"/>
<path d="M16.875 23.0625C14.9075 23.0625 13.3125 24.6575 13.3125 26.625C13.3125 28.5925 14.9075 30.1875 16.875 30.1875H21.625C23.5925 30.1875 25.1875 28.5925 25.1875 26.625C25.1875 24.6575 23.5925 23.0625 21.625 23.0625H16.875Z" fill="#FBB8AB"/>
<path d="M18.0625 26.625C18.0625 27.2808 17.5308 27.8125 16.875 27.8125C16.2192 27.8125 15.6875 27.2808 15.6875 26.625C15.6875 25.9692 16.2192 25.4375 16.875 25.4375C17.5308 25.4375 18.0625 25.9692 18.0625 26.625Z" fill="#FF8687"/>
<path d="M22.8125 26.625C22.8125 27.2808 22.2808 27.8125 21.625 27.8125C20.9692 27.8125 20.4375 27.2808 20.4375 26.625C20.4375 25.9692 20.9692 25.4375 21.625 25.4375C22.2808 25.4375 22.8125 25.9692 22.8125 26.625Z" fill="#FF8687"/>
<path d="M13.3125 19.5C13.3125 20.1531 13.8469 20.6875 14.5 20.6875C15.1531 20.6875 15.6875 20.1531 15.6875 19.5V18.3125C15.6875 17.6594 15.1531 17.125 14.5 17.125C13.8469 17.125 13.3125 17.6594 13.3125 18.3125V19.5Z" fill="#1C1C1C"/>
<path d="M22.8125 19.5C22.8125 20.1531 23.3469 20.6875 24 20.6875C24.6531 20.6875 25.1875 20.1531 25.1875 19.5V18.3125C25.1875 17.6594 24.6531 17.125 24 17.125C23.3469 17.125 22.8125 17.6594 22.8125 18.3125V19.5Z" fill="#1C1C1C"/>
</svg>
