<svg width="24" height="25" viewBox="0 0 24 25" fill="none" xmlns="http://www.w3.org/2000/svg">
<circle cx="12" cy="12.5" r="10.0435" stroke="#9C9EA0" stroke-width="1.91304"/>
<path d="M13.233 8.33425L13.2331 8.33423C13.3819 8.18541 13.547 8.07813 13.7285 8.01214C13.9105 7.94594 14.0924 7.91289 14.2742 7.91289C14.4726 7.91289 14.6627 7.95008 14.8445 8.02446C15.0262 8.09879 15.1915 8.21032 15.3404 8.35923L16.2651 9.28397C16.3974 9.43286 16.5007 9.59823 16.5751 9.78012C16.6496 9.96208 16.6867 10.1438 16.6867 10.3254C16.6867 10.5072 16.6537 10.6933 16.5874 10.8838C16.5214 11.0736 16.4141 11.2428 16.2654 11.3916L10.769 16.8879H7.71172V13.8306L13.233 8.33425ZM9.18672 15.4004V15.4129H9.19922H10.1492V15.4181L10.1581 15.4092L13.1831 12.3592L13.1916 12.3506L13.1833 12.3418L13.1831 12.3416L12.7333 11.8668L12.7333 11.8668L12.7328 11.8663L12.2581 11.4166L12.2578 11.4163L12.249 11.408L12.2404 11.4165L9.19042 14.4415L9.18672 14.4378V14.4504V15.4004Z" fill="#9C9EA0" stroke="#9C9EA0" stroke-width="0.025"/>
</svg>
