<svg width="16" height="16" viewBox="0 0 16 16" fill="none" xmlns="http://www.w3.org/2000/svg">
<path d="M6.37234 9.77708L11.3557 4.79375C11.489 4.66042 11.6446 4.59375 11.8223 4.59375C12.0001 4.59375 12.1557 4.66042 12.289 4.79375C12.4223 4.92708 12.489 5.08542 12.489 5.26875C12.489 5.45208 12.4223 5.61042 12.289 5.74375L6.83901 11.2104C6.70567 11.3438 6.55012 11.4104 6.37234 11.4104C6.19456 11.4104 6.03901 11.3438 5.90567 11.2104L3.70567 9.01042C3.57234 8.87708 3.50845 8.71875 3.51401 8.53542C3.51956 8.35208 3.58901 8.19375 3.72234 8.06042C3.85567 7.92708 4.01401 7.86042 4.19734 7.86042C4.38067 7.86042 4.53901 7.92708 4.67234 8.06042L6.37234 9.77708Z" fill="#ECEEF0"/>
</svg>
