<svg width="24" height="24" viewBox="0 0 24 24" fill="none" xmlns="http://www.w3.org/2000/svg">
<path d="M12 22C10.6175 22 9.31974 21.7382 8.10668 21.2147C6.89362 20.6914 5.83433 19.9769 4.9288 19.0712C4.02312 18.1657 3.3086 17.1064 2.78525 15.8933C2.26175 14.6803 2 13.3825 2 12C2 10.6154 2.2616 9.31828 2.78479 8.10876C3.30814 6.89923 4.02243 5.83986 4.92765 4.93065C5.83303 4.02143 6.89247 3.30568 8.10599 2.78341C9.31951 2.26114 10.6175 2 12 2C12.3994 2 12.7412 2.14209 13.0253 2.42627C13.3095 2.71045 13.4516 3.05223 13.4516 3.45161C13.4516 3.851 13.3095 4.19278 13.0253 4.47696C12.7412 4.76114 12.3994 4.90323 12 4.90323C10.0336 4.90323 8.35922 5.59439 6.97673 6.97673C5.59439 8.35906 4.90323 10.0334 4.90323 11.9998C4.90323 13.9661 5.59439 15.6406 6.97673 17.023C8.35906 18.4055 10.0334 19.0968 11.9998 19.0968C13.9661 19.0968 15.6406 18.4056 17.023 17.0233C18.4055 15.6408 19.0968 13.9664 19.0968 12C19.0968 11.6006 19.2389 11.2588 19.523 10.9747C19.8072 10.6905 20.149 10.5484 20.5484 10.5484C20.9478 10.5484 21.2896 10.6905 21.5737 10.9747C21.8579 11.2588 22 11.6006 22 12C22 13.3825 21.7384 14.6806 21.2152 15.8942C20.6919 17.1079 19.9776 18.1678 19.0723 19.074C18.167 19.9801 17.1086 20.6943 15.8972 21.2166C14.6859 21.7389 13.3868 22 12 22Z" fill="#ECEEF0"/>
</svg>
