<svg width="24" height="25" viewBox="0 0 24 25" fill="none" xmlns="http://www.w3.org/2000/svg">
<path d="M10.5662 2.75C10.1111 2.75 9.72212 3.07166 9.63472 3.51816L9.31743 5.14727C8.53771 5.44211 7.81674 5.85403 7.18364 6.37373L5.62134 5.83564C5.19099 5.68744 4.7175 5.86539 4.4895 6.25869L3.05708 8.74131C2.83003 9.13556 2.91267 9.63608 3.25562 9.93437L4.50806 11.0235C4.44292 11.4238 4.40044 11.8313 4.40044 12.25C4.40044 12.6687 4.44292 13.0762 4.50806 13.4765L3.25562 14.5656C2.91267 14.8639 2.83003 15.3644 3.05708 15.7587L4.4895 18.2413C4.71655 18.6356 5.19099 18.8135 5.62134 18.6662L7.18364 18.1281C7.81653 18.6475 8.53806 19.058 9.31743 19.3527L9.63472 20.9818C9.72212 21.4283 10.1111 21.75 10.5662 21.75H13.4347C13.8898 21.75 14.2788 21.4283 14.3662 20.9818L14.6834 19.3527C15.4632 19.0579 16.1841 18.646 16.8172 18.1263L18.3795 18.6644C18.8099 18.8126 19.2834 18.6356 19.5114 18.2413L20.9438 15.7568C21.1709 15.3626 21.0882 14.8639 20.7453 14.5656L19.4928 13.4765C19.558 13.0762 19.6004 12.6687 19.6004 12.25C19.6004 11.8313 19.558 11.4238 19.4928 11.0235L20.7453 9.93437C21.0882 9.63608 21.1709 9.13556 20.9438 8.74131L19.5114 6.25869C19.2843 5.86444 18.8099 5.68654 18.3795 5.83379L16.8172 6.37188C16.1844 5.8525 15.4628 5.44198 14.6834 5.14727L14.3662 3.51816C14.2788 3.07166 13.8898 2.75 13.4347 2.75H10.5662ZM12.0004 8.45C14.099 8.45 15.8004 10.1514 15.8004 12.25C15.8004 14.3485 14.099 16.05 12.0004 16.05C9.90189 16.05 8.20044 14.3485 8.20044 12.25C8.20044 10.1514 9.90189 8.45 12.0004 8.45Z" fill="#BABCBE"/>
</svg>
