<svg width="84" height="18" viewBox="0 0 84 18" fill="none" xmlns="http://www.w3.org/2000/svg">
<path d="M77.625 15.6269C77.625 14.4285 78.6077 13.4458 79.8061 13.4458C81.0284 13.4458 82.0111 14.4285 82.0111 15.6269C82.0111 16.8253 81.0284 17.808 79.8061 17.808C78.6077 17.808 77.625 16.8253 77.625 15.6269Z" fill="#4AFF81"/>
<path d="M52.4111 17.6404H49.2233V5.84817H52.4111V17.6404Z" fill="white"/>
<path d="M48.8398 1.98934C48.8398 0.886813 49.7267 0 50.8052 0C51.9077 0 52.7706 0.886813 52.7706 1.98934C52.7706 3.04393 51.9077 3.93074 50.8052 3.93074C49.7267 3.93074 48.8398 3.04393 48.8398 1.98934Z" fill="white"/>
<path d="M59.7539 5.84799V2.32471H56.8778V3.97849C56.8778 5.03308 56.3026 5.84799 55.0562 5.84799H54.457V8.67621H56.5902V14.1649C56.5902 16.4418 58.0283 17.808 60.3292 17.808C61.2639 17.808 61.8391 17.6402 62.1268 17.5204V14.8839C61.959 14.9318 61.5276 14.9798 61.1441 14.9798C60.2333 14.9798 59.7539 14.6442 59.7539 13.6136V8.67621H62.1268V5.84799H59.7539Z" fill="white"/>
<path fill-rule="evenodd" clip-rule="evenodd" d="M76.1995 11.7444C76.1995 8.10127 73.539 5.48877 70.0158 5.48877C66.4925 5.48877 63.832 8.10127 63.832 11.7444C63.832 15.3636 66.4925 18 70.0158 18C73.539 18 76.1995 15.3636 76.1995 11.7444ZM73.0117 11.7444C73.0117 13.9734 71.5737 15.0999 70.0158 15.0999C68.4578 15.0999 67.0198 13.9494 67.0198 11.7444C67.0198 9.51538 68.4578 8.38889 70.0158 8.38889C71.5737 8.38889 73.0117 9.51538 73.0117 11.7444Z" fill="white"/>
<path d="M38.4143 17.6404V10.7136C38.4862 9.41937 39.2771 8.41272 40.6193 8.41272C42.1533 8.41272 42.8004 9.44334 42.8004 10.7616V17.6404H45.9882V10.2103C45.9882 7.62178 44.598 5.53657 41.602 5.53657C40.4755 5.53657 39.1813 5.92006 38.4143 6.83084V0.287598H35.2266V17.6404H38.4143Z" fill="white"/>
<path fill-rule="evenodd" clip-rule="evenodd" d="M26.5275 5.48877C30.0508 5.48877 32.7112 8.10127 32.7112 11.7444C32.7112 15.3636 30.0508 18 26.5275 18C23.0042 18 20.3438 15.3636 20.3438 11.7444C20.3438 8.10127 23.0042 5.48877 26.5275 5.48877ZM26.5275 15.0999C28.0854 15.0999 29.5235 13.9734 29.5235 11.7444C29.5235 9.51538 28.0854 8.38889 26.5275 8.38889C24.9696 8.38889 23.5315 9.51538 23.5315 11.7444C23.5315 13.9494 24.9696 15.0999 26.5275 15.0999Z" fill="white"/>
<path d="M0 17.6405H3.18773V10.7377C3.18773 9.44343 4.00264 8.41281 5.39278 8.41281C6.83086 8.41281 7.47799 9.37153 7.47799 10.6418V17.6405H10.6418V10.7377C10.6418 9.4674 11.4567 8.41281 12.8228 8.41281C14.2849 8.41281 14.908 9.37153 14.908 10.6418V17.6405H17.9999V9.9947C17.9999 6.83093 15.9147 5.5127 13.7336 5.5127C12.1757 5.5127 10.9294 6.03999 9.99462 7.47806C9.39542 6.20776 8.10116 5.5127 6.49531 5.5127C5.20104 5.5127 3.69106 6.13586 3.04393 7.28632V5.84825H0V17.6405Z" fill="white"/>
</svg>
