<svg width="49" height="48" viewBox="0 0 49 48" fill="none" xmlns="http://www.w3.org/2000/svg">
<rect x="1.5" y="1" width="46" height="46" rx="23" stroke="#ECEEF0" stroke-width="2"/>
<path fill-rule="evenodd" clip-rule="evenodd" d="M17.808 29.2049C17.3973 29.6156 17.3973 30.2814 17.808 30.692C18.2186 31.1027 18.8844 31.1027 19.2951 30.692L24.5 25.4871L29.7049 30.692C30.1156 31.1027 30.7814 31.1027 31.192 30.692C31.6027 30.2814 31.6027 29.6156 31.192 29.2049L25.9871 24L31.192 18.7951C31.6027 18.3844 31.6027 17.7186 31.192 17.308C30.7814 16.8973 30.1156 16.8973 29.7049 17.308L24.5 22.5129L19.2951 17.308C18.8844 16.8973 18.2186 16.8973 17.808 17.308C17.3973 17.7186 17.3973 18.3845 17.808 18.7951L23.0129 24L17.808 29.2049Z" fill="white"/>
</svg>
