<svg width="85" height="19" viewBox="0 0 85 19" fill="none" xmlns="http://www.w3.org/2000/svg">
<path d="M78.126 16.1464C78.126 14.948 79.1087 13.9653 80.3071 13.9653C81.5294 13.9653 82.5121 14.948 82.5121 16.1464C82.5121 17.3448 81.5294 18.3275 80.3071 18.3275C79.1087 18.3275 78.126 17.3448 78.126 16.1464Z" fill="#56D389"/>
<path d="M52.912 18.1604H49.7243V6.36819H52.912V18.1604Z" fill="white"/>
<path d="M49.3408 2.50936C49.3408 1.40683 50.2276 0.52002 51.3062 0.52002C52.4087 0.52002 53.2716 1.40683 53.2716 2.50936C53.2716 3.56395 52.4087 4.45076 51.3062 4.45076C50.2276 4.45076 49.3408 3.56395 49.3408 2.50936Z" fill="white"/>
<path d="M60.2549 6.36801V2.84473H57.3788V4.49851C57.3788 5.5531 56.8035 6.36801 55.5572 6.36801H54.958V9.19623H57.0912V14.6849C57.0912 16.9618 58.5292 18.328 60.8302 18.328C61.7649 18.328 62.3401 18.1602 62.6277 18.0404V15.4039C62.46 15.4519 62.0285 15.4998 61.6451 15.4998C60.7343 15.4998 60.2549 15.1642 60.2549 14.1336V9.19623H62.6277V6.36801H60.2549Z" fill="white"/>
<path fill-rule="evenodd" clip-rule="evenodd" d="M76.7005 12.2644C76.7005 8.62129 74.04 6.00879 70.5167 6.00879C66.9934 6.00879 64.333 8.62129 64.333 12.2644C64.333 15.8836 66.9934 18.52 70.5167 18.52C74.04 18.52 76.7005 15.8836 76.7005 12.2644ZM73.5127 12.2644C73.5127 14.4934 72.0746 15.6199 70.5167 15.6199C68.9588 15.6199 67.5207 14.4695 67.5207 12.2644C67.5207 10.0354 68.9588 8.90891 70.5167 8.90891C72.0746 8.90891 73.5127 10.0354 73.5127 12.2644Z" fill="white"/>
<path d="M38.9153 18.1604V11.2337C38.9872 9.93939 39.7781 8.93274 41.1203 8.93274C42.6543 8.93274 43.3014 9.96336 43.3014 11.2816V18.1604H46.4891V10.7303C46.4891 8.1418 45.099 6.05659 42.103 6.05659C40.9765 6.05659 39.6822 6.44008 38.9153 7.35086V0.807617H35.7275V18.1604H38.9153Z" fill="white"/>
<path fill-rule="evenodd" clip-rule="evenodd" d="M27.0285 6.00879C30.5517 6.00879 33.2122 8.62129 33.2122 12.2644C33.2122 15.8836 30.5517 18.52 27.0285 18.52C23.5052 18.52 20.8447 15.8836 20.8447 12.2644C20.8447 8.62129 23.5052 6.00879 27.0285 6.00879ZM27.0285 15.6199C28.5864 15.6199 30.0244 14.4934 30.0244 12.2644C30.0244 10.0354 28.5864 8.90891 27.0285 8.90891C25.4705 8.90891 24.0325 10.0354 24.0325 12.2644C24.0325 14.4695 25.4705 15.6199 27.0285 15.6199Z" fill="white"/>
<path d="M0.500977 18.1605H3.68871V11.2577C3.68871 9.96345 4.50362 8.93283 5.89376 8.93283C7.33183 8.93283 7.97897 9.89155 7.97897 11.1618V18.1605H11.1427V11.2577C11.1427 9.98742 11.9576 8.93283 13.3238 8.93283C14.7859 8.93283 15.409 9.89155 15.409 11.1618V18.1605H18.5009V10.5147C18.5009 7.35095 16.4157 6.03271 14.2346 6.03271C12.6767 6.03271 11.4303 6.56001 10.4956 7.99808C9.8964 6.72778 8.60213 6.03271 6.99628 6.03271C5.70202 6.03271 4.19204 6.65588 3.5449 7.80634V6.36827H0.500977V18.1605Z" fill="white"/>
</svg>
