<svg width="41" height="40" viewBox="0 0 41 40" fill="none" xmlns="http://www.w3.org/2000/svg">
<path fill-rule="evenodd" clip-rule="evenodd" d="M38.9222 19.8022C38.9222 9.44713 30.6748 1.05273 20.5011 1.05273C10.3275 1.05273 2.08008 9.44713 2.08008 19.8022V31.7678V32.3019H2.10308C2.37427 35.4358 5.00954 37.8951 8.22043 37.8951C11.4313 37.8951 14.0666 35.4358 14.3378 32.3019H14.3872C14.6584 35.4358 17.2937 37.8951 20.5046 37.8951C23.7154 37.8951 26.3507 35.4358 26.6219 32.3019H26.6631C26.9343 35.4358 29.5696 37.8951 32.7805 37.8951C35.9914 37.8951 38.6266 35.4358 38.8978 32.3019H38.9222V19.8022Z" fill="#4AFF81"/>
<path fill-rule="evenodd" clip-rule="evenodd" d="M25.4977 17.1055C26.8783 17.1055 27.9975 15.9862 27.9975 14.6055C27.9975 13.2248 26.8783 12.1055 25.4977 12.1055C24.1171 12.1055 22.9979 13.2248 22.9979 14.6055C22.9979 15.9862 24.1171 17.1055 25.4977 17.1055ZM15.5037 17.1057C16.8843 17.1057 18.0035 15.9864 18.0035 14.6057C18.0035 13.225 16.8843 12.1057 15.5037 12.1057C14.1231 12.1057 13.0039 13.225 13.0039 14.6057C13.0039 15.9864 14.1231 17.1057 15.5037 17.1057Z" fill="#202223"/>
<path fill-rule="evenodd" clip-rule="evenodd" d="M20.5023 22.1564C21.402 22.1564 22.1313 21.427 22.1313 20.5272C22.1313 19.6274 21.402 18.898 20.5023 18.898C19.6025 18.898 18.8732 19.6274 18.8732 20.5272C18.8732 21.427 19.6025 22.1564 20.5023 22.1564ZM20.5023 27.3699C24.2811 27.3699 27.3444 24.3063 27.3444 20.5272C27.3444 16.7481 24.2811 13.6846 20.5023 13.6846C16.7235 13.6846 13.6602 16.7481 13.6602 20.5272C13.6602 24.3063 16.7235 27.3699 20.5023 27.3699Z" fill="#4494FE"/>
</svg>
