<svg width="335" height="83" viewBox="0 0 335 83" fill="none" xmlns="http://www.w3.org/2000/svg">
<rect x="20" y="0.5" width="295" height="68" rx="16" fill="#333333"/>
<rect x="36" y="18.5" width="32" height="32" rx="16" fill="#FCC834"/>
<g filter="url(#filter0_i_708_618)">
<path d="M42.1797 34.5967C42.1797 29.5889 46.2393 25.5293 51.2471 25.5293H52.7567C57.7645 25.5293 61.8241 29.5889 61.8241 34.5967V35.3524C61.8241 40.3602 57.7645 44.4198 52.7567 44.4198H51.2471C46.2393 44.4198 42.1797 40.3602 42.1797 35.3524V34.5967Z" fill="url(#paint0_radial_708_618)"/>
</g>
<path d="M61.2631 31.4516C61.206 31.2726 61.0021 30.7855 60.8878 30.5767L58.9043 32.8758L61.2631 31.4516Z" fill="url(#paint1_linear_708_618)"/>
<path d="M42.7349 31.4516C42.7921 31.2726 42.9959 30.7855 43.1102 30.5767L45.0938 32.8758L42.7349 31.4516Z" fill="url(#paint2_linear_708_618)"/>
<path d="M58.9745 26.6924L60.6349 28.5136C61.054 28.9718 61.054 29.7238 60.6349 30.1821L58.9745 31.9974C58.292 32.7435 57.1313 32.2147 57.1313 31.1632V27.5325C57.1313 26.4809 58.292 25.9522 58.9745 26.6924Z" fill="#FBB8AB"/>
<path d="M58.9637 26.2441L60.9008 28.4976C61.3898 29.0646 61.3898 29.9951 60.9008 30.5621L58.9637 32.8083C58.1675 33.7315 56.8134 33.0773 56.8134 31.7761V27.2836C56.8134 25.9824 58.1675 25.3282 58.9637 26.2441Z" fill="url(#paint3_linear_708_618)"/>
<path d="M45.0402 26.2441L43.1031 28.4976C42.6141 29.0646 42.6141 29.9951 43.1031 30.5621L45.0402 32.8083C45.8364 33.7315 47.1905 33.0773 47.1905 31.7761V27.2836C47.1905 25.9824 45.8364 25.3282 45.0402 26.2441Z" fill="url(#paint4_linear_708_618)"/>
<g filter="url(#filter1_d_708_618)">
<path d="M50.4915 36.1074C49.2395 36.1074 48.2246 37.1223 48.2246 38.3743C48.2246 39.6262 49.2395 40.6411 50.4915 40.6411H53.514C54.7659 40.6411 55.7808 39.6262 55.7808 38.3743C55.7808 37.1223 54.7659 36.1074 53.514 36.1074H50.4915Z" fill="url(#paint5_linear_708_618)"/>
</g>
<path d="M51.2476 38.3743C51.2476 38.7916 50.9093 39.1299 50.4919 39.1299C50.0746 39.1299 49.7363 38.7916 49.7363 38.3743C49.7363 37.957 50.0746 37.6187 50.4919 37.6187C50.9093 37.6187 51.2476 37.957 51.2476 38.3743Z" fill="#FF8687"/>
<path d="M54.2701 38.3743C54.2701 38.7916 53.9317 39.1299 53.5144 39.1299C53.0971 39.1299 52.7588 38.7916 52.7588 38.3743C52.7588 37.957 53.0971 37.6187 53.5144 37.6187C53.9317 37.6187 54.2701 37.957 54.2701 38.3743Z" fill="#FF8687"/>
<path d="M48.2246 33.8413C48.2246 34.2569 48.5646 34.5969 48.9802 34.5969C49.3958 34.5969 49.7359 34.2569 49.7359 33.8413V33.0857C49.7359 32.6701 49.3958 32.3301 48.9802 32.3301C48.5646 32.3301 48.2246 32.6701 48.2246 33.0857V33.8413Z" fill="url(#paint6_linear_708_618)"/>
<path d="M54.2696 33.8413C54.2696 34.2569 54.6096 34.5969 55.0252 34.5969C55.4408 34.5969 55.7808 34.2569 55.7808 33.8413V33.0857C55.7808 32.6701 55.4408 32.3301 55.0252 32.3301C54.6096 32.3301 54.2696 32.6701 54.2696 33.0857V33.8413Z" fill="url(#paint7_linear_708_618)"/>
<path d="M86.0312 34.8281V37.1172C87.2578 37.0469 88.4922 36.9375 89.6562 36.7656L89.7969 38.0469C86.6328 38.6328 83.2422 38.6641 80.75 38.6562L80.5312 37.25C81.6328 37.2422 82.9297 37.2344 84.2969 37.1953V34.8281H86.0312ZM80.8594 33.9688C82.9844 33.3828 84.1562 31.9844 84.2578 30.4062H81.2812V29H84.2969V27.3906H86.0312V29H89.0781V30.4062H86.0547C86.1484 31.9141 87.3438 33.2656 89.4688 33.8125L88.6719 35.1719C87 34.7188 85.8047 33.7422 85.1641 32.4922C84.5469 33.8047 83.3672 34.8281 81.6875 35.2812L80.8594 33.9688ZM90.5 41.4062V27.2656H92.2344V41.4062H90.5ZM105.625 28.0781V29.25C105.633 30.4375 105.633 31.8047 105.305 33.5938H107.203V35.0156H94.2969V33.5938H103.539C103.867 31.8906 103.891 30.6328 103.891 29.4844H95.8906V28.0781H105.625ZM95.9688 41.0938V36.3594H97.6875V39.6875H106.031V41.0938H95.9688ZM124.797 34.6094V35.9844H111.891V34.6094H117.469V33.5625H113.547V27.6406H123.25V28.9844H115.281V29.9531H122.906V31.2344H115.281V32.2344H123.359V33.5625H119.203V34.6094H124.797ZM113.422 39.0625C113.422 37.5859 115.195 36.7578 118.344 36.7656C121.445 36.7578 123.227 37.5859 123.234 39.0625C123.227 40.5781 121.445 41.375 118.344 41.375C115.195 41.375 113.422 40.5781 113.422 39.0625ZM115.156 39.0625C115.156 39.75 116.219 40.0781 118.344 40.0781C120.43 40.0781 121.484 39.75 121.5 39.0625C121.484 38.3906 120.43 38.0625 118.344 38.0625C116.219 38.0625 115.156 38.3906 115.156 39.0625ZM137.938 27.2656V41.3906H136.281V27.2656H137.938ZM125.609 37.1719C128.531 35.4453 129.875 33.2344 130.141 30.3906H126.359V28.9844H131.859C131.859 29.6953 131.812 30.3906 131.711 31.0625H133.359V27.6094H135.016V40.7188H133.359V36H131.156V34.5781H133.359V32.4844H131.414C130.742 34.8281 129.273 36.8438 126.625 38.4062L125.609 37.1719ZM152.469 33.6719V34.9844H139.562V33.6719H152.469ZM141.062 37.0469V35.8281H150.906V39.0469H142.812V40.0312H151.328V41.2344H141.078V37.9219H149.188V37.0469H141.062ZM141.156 28.7812V27.5781H150.875V30.7656H142.922V31.6875H151.125V32.875H141.203V29.6406H149.141V28.7812H141.156ZM162.281 30.1562C162.273 31.6719 163.422 33.1562 165.641 33.75L164.859 35.0781C163.227 34.6406 162.062 33.7031 161.43 32.5C160.805 33.8281 159.617 34.8594 157.953 35.3438L157.125 33.9688C159.352 33.3672 160.547 31.8125 160.547 30.1562V30.1094H157.594V28.7344H160.547V27.2031H162.297V28.7344H165.234V30.1094H162.281V30.1562ZM158.516 40C160.938 39.6719 162.508 38.6094 162.844 37.4062H159.094V36.0156H168.547V37.4062H164.812C165.148 38.5781 166.727 39.6797 169.141 40.0156L168.516 41.3438C166.305 41.0312 164.633 40.0859 163.82 38.8047C163.008 40.0781 161.344 41 159.156 41.3125L158.516 40ZM166.609 35.3594V27.2656H168.344V30.5469H170.312V31.9844H168.344V35.3594H166.609ZM174.828 28.2969C176.953 28.2969 178.484 30.2344 178.5 33.2812C178.484 36.3516 176.953 38.2812 174.828 38.2812C172.68 38.2812 171.148 36.3516 171.156 33.2812C171.148 30.2344 172.68 28.2969 174.828 28.2969ZM172.828 33.2812C172.82 35.4531 173.641 36.7109 174.828 36.7188C176.023 36.7109 176.82 35.4531 176.828 33.2812C176.82 31.125 176.023 29.8594 174.828 29.8594C173.641 29.8594 172.82 31.125 172.828 33.2812ZM180.359 41.3906V27.2656H182.094V32.6875H184.266V34.1562H182.094V41.3906H180.359ZM197.766 38.2656V39.6875H184.859V38.2656H190.422V35.5156H186.281V28.2031H188.016V30.5156H194.562V28.2031H196.297V35.5156H192.141V38.2656H197.766ZM188.016 34.1094H194.562V31.9062H188.016V34.1094ZM210.219 28.5625V29.9219C210.203 31.6797 210.203 33.6406 209.656 36.5938L207.906 36.4062C208.461 33.6562 208.461 31.6484 208.469 29.9531H200.031V28.5625H210.219ZM198.688 39.5625V38.1406H203.438V33.2344H205.156V38.1406H211.562V39.5625H198.688ZM221.328 36.4531C221.328 37.6328 221.867 38.8594 223.078 39.6406C224.312 38.8047 224.883 37.5234 224.891 36.4531V35.875H226.594V36.4531C226.586 37.9297 227.461 39.3203 229.312 39.9062L228.469 41.1719C227.094 40.7109 226.188 39.8125 225.695 38.6797C225.234 39.7969 224.406 40.7812 223.125 41.2969C221.781 40.8047 220.938 39.8516 220.492 38.7344C219.984 39.8203 219.086 40.7031 217.781 41.1719L216.922 39.9062C218.75 39.2656 219.633 37.8281 219.641 36.4531V35.875H221.328V36.4531ZM216.562 31.3906C216.562 29.4062 218.188 28.0312 220.375 28.0312C222.555 28.0312 224.18 29.4062 224.172 31.3906C224.18 33.3516 222.555 34.7422 220.375 34.7344C218.188 34.7422 216.562 33.3516 216.562 31.3906ZM218.266 31.3906C218.258 32.5469 219.141 33.2891 220.375 33.2969C221.586 33.2891 222.469 32.5469 222.469 31.3906C222.469 30.2344 221.586 29.4922 220.375 29.5C219.141 29.4922 218.258 30.2344 218.266 31.3906ZM226.328 35.2812V27.2812H228.078V35.2812H226.328ZM234 28.2969C235.906 28.2969 237.32 29.8906 237.57 32.4688H240.266V27.2656H241.984V41.4062H240.266V33.875H237.586C237.398 36.6016 235.961 38.2812 234 38.2812C231.875 38.2812 230.367 36.3516 230.375 33.2812C230.367 30.2344 231.875 28.2969 234 28.2969ZM232.047 33.2812C232.039 35.4531 232.836 36.7109 234 36.7188C235.172 36.7109 235.961 35.4531 235.969 33.2812C235.961 31.125 235.172 29.8594 234 29.8594C232.836 29.8594 232.039 31.125 232.047 33.2812ZM256.875 38.25V39.6719H243.969V38.25H246.953V34.6797C245.828 34.0312 245.148 33.0156 245.156 31.7656C245.148 29.5156 247.352 28.0312 250.391 28.0312C253.445 28.0312 255.664 29.5156 255.656 31.7656C255.664 33 255 33.9922 253.906 34.6406V38.25H256.875ZM246.859 31.7656C246.852 33.2109 248.281 34.1328 250.391 34.125C252.492 34.1328 253.953 33.2109 253.953 31.7656C253.953 30.2969 252.492 29.3984 250.391 29.4062C248.281 29.3984 246.852 30.2969 246.859 31.7656ZM248.672 38.25H252.141V35.3047C251.602 35.4219 251.016 35.4844 250.391 35.4844C249.781 35.4844 249.203 35.4219 248.672 35.3125V38.25ZM259.516 40.125C258.844 40.125 258.289 39.5781 258.297 38.9062C258.289 38.25 258.844 37.7109 259.516 37.7031C260.164 37.7109 260.719 38.25 260.719 38.9062C260.719 39.5781 260.164 40.125 259.516 40.125Z" fill="white"/>
<circle cx="281.5" cy="17" r="3.5" fill="#4AFF81"/>
<path d="M290.31 20.5H289.3L292.147 12.7227H293.167L296.014 20.5H294.994L294.215 18.3086H291.089L290.31 20.5ZM291.384 17.46H293.919L292.684 13.9795H292.62L291.384 17.46ZM298.034 12.7227V20.5H297.067V12.7227H298.034Z" fill="#BABCBE"/>
<path d="M37.5 68.5H297.5V70.5C297.5 77.1274 292.127 82.5 285.5 82.5H49.5C42.8726 82.5 37.5 77.1274 37.5 70.5V68.5Z" fill="#222222"/>
<defs>
<filter id="filter0_i_708_618" x="42.1797" y="24.2567" width="19.6445" height="20.1632" filterUnits="userSpaceOnUse" color-interpolation-filters="sRGB">
<feFlood flood-opacity="0" result="BackgroundImageFix"/>
<feBlend mode="normal" in="SourceGraphic" in2="BackgroundImageFix" result="shape"/>
<feColorMatrix in="SourceAlpha" type="matrix" values="0 0 0 0 0 0 0 0 0 0 0 0 0 0 0 0 0 0 127 0" result="hardAlpha"/>
<feOffset dy="-1.27262"/>
<feGaussianBlur stdDeviation="1.27262"/>
<feComposite in2="hardAlpha" operator="arithmetic" k2="-1" k3="1"/>
<feColorMatrix type="matrix" values="0 0 0 0 0 0 0 0 0 0 0 0 0 0 0 0 0 0 0.25 0"/>
<feBlend mode="normal" in2="shape" result="effect1_innerShadow_708_618"/>
</filter>
<filter id="filter1_d_708_618" x="47.5883" y="35.7893" width="8.82926" height="5.80632" filterUnits="userSpaceOnUse" color-interpolation-filters="sRGB">
<feFlood flood-opacity="0" result="BackgroundImageFix"/>
<feColorMatrix in="SourceAlpha" type="matrix" values="0 0 0 0 0 0 0 0 0 0 0 0 0 0 0 0 0 0 127 0" result="hardAlpha"/>
<feOffset dy="0.318156"/>
<feGaussianBlur stdDeviation="0.318156"/>
<feComposite in2="hardAlpha" operator="out"/>
<feColorMatrix type="matrix" values="0 0 0 0 0 0 0 0 0 0 0 0 0 0 0 0 0 0 0.1 0"/>
<feBlend mode="normal" in2="BackgroundImageFix" result="effect1_dropShadow_708_618"/>
<feBlend mode="normal" in="SourceGraphic" in2="effect1_dropShadow_708_618" result="shape"/>
</filter>
<radialGradient id="paint0_radial_708_618" cx="0" cy="0" r="1" gradientUnits="userSpaceOnUse" gradientTransform="translate(52.0019 27.6215) rotate(90) scale(13.3626 13.8959)">
<stop offset="0.288691" stop-color="#FFB5B6"/>
<stop offset="1" stop-color="#D86E6F"/>
</radialGradient>
<linearGradient id="paint1_linear_708_618" x1="59.2349" y1="32.4887" x2="63.2516" y2="29.1878" gradientUnits="userSpaceOnUse">
<stop stop-color="#1C1C1C"/>
<stop offset="1" stop-color="#1C1C1C" stop-opacity="0"/>
</linearGradient>
<linearGradient id="paint2_linear_708_618" x1="44.7632" y1="32.4887" x2="40.7464" y2="29.1878" gradientUnits="userSpaceOnUse">
<stop stop-color="#1C1C1C"/>
<stop offset="1" stop-color="#1C1C1C" stop-opacity="0"/>
</linearGradient>
<linearGradient id="paint3_linear_708_618" x1="59.0405" y1="25.8169" x2="59.0405" y2="33.2405" gradientUnits="userSpaceOnUse">
<stop stop-color="#FBB8AB"/>
<stop offset="1" stop-color="#EA7273"/>
</linearGradient>
<linearGradient id="paint4_linear_708_618" x1="44.9634" y1="25.8169" x2="44.9634" y2="33.2405" gradientUnits="userSpaceOnUse">
<stop stop-color="#FBB8AB"/>
<stop offset="1" stop-color="#EA7273"/>
</linearGradient>
<linearGradient id="paint5_linear_708_618" x1="52.0027" y1="36.1074" x2="52.0027" y2="40.6411" gradientUnits="userSpaceOnUse">
<stop stop-color="#FFD7CF"/>
<stop offset="1" stop-color="#FFB1A1"/>
</linearGradient>
<linearGradient id="paint6_linear_708_618" x1="52.0027" y1="34.5969" x2="52.0027" y2="29.6898" gradientUnits="userSpaceOnUse">
<stop stop-color="#1C1C1C"/>
<stop offset="1" stop-color="#1C1C1C" stop-opacity="0.5"/>
</linearGradient>
<linearGradient id="paint7_linear_708_618" x1="52.0027" y1="34.5969" x2="52.0027" y2="29.6898" gradientUnits="userSpaceOnUse">
<stop stop-color="#1C1C1C"/>
<stop offset="1" stop-color="#1C1C1C" stop-opacity="0.5"/>
</linearGradient>
</defs>
</svg>
