<svg width="25" height="25" viewBox="0 0 25 25" fill="none" xmlns="http://www.w3.org/2000/svg">
<path d="M2.75 12.8555C2.75 7.88491 6.77944 3.85547 11.75 3.85547H13.2483C18.2189 3.85547 22.2483 7.88491 22.2483 12.8555V13.6055C22.2483 18.576 18.2189 22.6055 13.2483 22.6055H11.75C6.77944 22.6055 2.75 18.576 2.75 13.6055V12.8555Z" fill="#FF8687"/>
<path d="M19.4208 5.01017L21.0688 6.81781C21.4849 7.27264 21.4849 8.01902 21.0688 8.47385L19.4208 10.2757C18.7434 11.0162 17.5914 10.4914 17.5914 9.44764V5.84402C17.5914 4.80025 18.7434 4.27545 19.4208 5.01017Z" fill="#FBB8AB"/>
<path d="M19.4105 4.56515L21.3333 6.80188C21.8186 7.36467 21.8186 8.28822 21.3333 8.85101L19.4105 11.0805C18.6203 11.9969 17.2762 11.3475 17.2762 10.056V5.59693C17.2762 4.3054 18.6203 3.65602 19.4105 4.56515Z" fill="#FBB8AB"/>
<path d="M5.58949 4.56515L3.66675 6.80188C3.1814 7.36467 3.1814 8.28822 3.66675 8.85101L5.58949 11.0805C6.37974 11.9969 7.72379 11.3475 7.72379 10.056V5.59693C7.72379 4.3054 6.37974 3.65602 5.58949 4.56515Z" fill="#FBB8AB"/>
<path d="M11 14.3555C9.75736 14.3555 8.75 15.3628 8.75 16.6055C8.75 17.8481 9.75736 18.8555 11 18.8555H14C15.2426 18.8555 16.25 17.8481 16.25 16.6055C16.25 15.3628 15.2426 14.3555 14 14.3555H11Z" fill="#FBB8AB"/>
<path d="M11.75 16.6055C11.75 17.0197 11.4142 17.3555 11 17.3555C10.5858 17.3555 10.25 17.0197 10.25 16.6055C10.25 16.1913 10.5858 15.8555 11 15.8555C11.4142 15.8555 11.75 16.1913 11.75 16.6055Z" fill="#FF8687"/>
<path d="M14.75 16.6055C14.75 17.0197 14.4142 17.3555 14 17.3555C13.5858 17.3555 13.25 17.0197 13.25 16.6055C13.25 16.1913 13.5858 15.8555 14 15.8555C14.4142 15.8555 14.75 16.1913 14.75 16.6055Z" fill="#FF8687"/>
<path d="M8.75 12.1055C8.75 12.518 9.0875 12.8555 9.5 12.8555C9.9125 12.8555 10.25 12.518 10.25 12.1055V11.3555C10.25 10.943 9.9125 10.6055 9.5 10.6055C9.0875 10.6055 8.75 10.943 8.75 11.3555V12.1055Z" fill="#1C1C1C"/>
<path d="M14.75 12.1055C14.75 12.518 15.0875 12.8555 15.5 12.8555C15.9125 12.8555 16.25 12.518 16.25 12.1055V11.3555C16.25 10.943 15.9125 10.6055 15.5 10.6055C15.0875 10.6055 14.75 10.943 14.75 11.3555V12.1055Z" fill="#1C1C1C"/>
</svg>
