<svg width="63" height="63" viewBox="0 0 63 63" fill="none" xmlns="http://www.w3.org/2000/svg">
<g filter="url(#filter0_i_594_3375)">
<path d="M5.14453 31.7597C5.14453 18.3253 16.0353 7.43457 29.4697 7.43457H33.5193C46.9538 7.43457 57.8445 18.3253 57.8445 31.7597V33.7868C57.8445 47.2213 46.9538 58.112 33.5194 58.112H29.4697C16.0353 58.112 5.14453 47.2213 5.14453 33.7868V31.7597Z" fill="url(#paint0_radial_594_3375)"/>
</g>
<path d="M56.3436 23.3232C56.1903 22.8431 55.6435 21.5362 55.3368 20.9761L50.0156 27.1441L56.3436 23.3232Z" fill="url(#paint1_linear_594_3375)"/>
<path d="M6.63683 23.3232C6.7902 22.8431 7.33698 21.5362 7.64371 20.9761L12.9648 27.1441L6.63683 23.3232Z" fill="url(#paint2_linear_594_3375)"/>
<path d="M50.2062 10.5556L54.6606 15.4413C55.785 16.6706 55.785 18.6879 54.6606 19.9172L50.2062 24.7872C48.3755 26.7887 45.2617 25.3703 45.2617 22.5492V12.8093C45.2617 9.98824 48.3755 8.56981 50.2062 10.5556Z" fill="#FBB8AB"/>
<path d="M50.1748 9.35262L55.3716 15.398C56.6834 16.9192 56.6834 19.4153 55.3716 20.9364L50.1748 26.9624C48.039 29.439 44.4063 27.6839 44.4063 24.1932V12.1413C44.4063 8.65057 48.039 6.89544 50.1748 9.35262Z" fill="url(#paint3_linear_594_3375)"/>
<path d="M12.8212 9.35262L7.62448 15.398C6.31267 16.9192 6.31267 19.4153 7.62448 20.9364L12.8212 26.9624C14.9571 29.439 18.5898 27.6839 18.5898 24.1932V12.1413C18.5898 8.65057 14.9571 6.89544 12.8212 9.35262Z" fill="url(#paint4_linear_594_3375)"/>
<g filter="url(#filter1_d_594_3375)">
<path d="M27.4446 35.8149C24.086 35.8149 21.3633 38.5376 21.3633 41.8962C21.3633 45.2548 24.086 47.9775 27.4446 47.9775H35.553C38.9116 47.9775 41.6343 45.2548 41.6343 41.8962C41.6343 38.5376 38.9116 35.8149 35.553 35.8149H27.4446Z" fill="url(#paint5_linear_594_3375)"/>
</g>
<path d="M29.4702 41.8957C29.4702 43.0153 28.5626 43.9228 27.4431 43.9228C26.3236 43.9228 25.416 43.0153 25.416 41.8957C25.416 40.7762 26.3236 39.8687 27.4431 39.8687C28.5626 39.8687 29.4702 40.7762 29.4702 41.8957Z" fill="#FF8687"/>
<path d="M37.5786 41.8957C37.5786 43.0153 36.671 43.9228 35.5515 43.9228C34.432 43.9228 33.5244 43.0153 33.5244 41.8957C33.5244 40.7762 34.432 39.8687 35.5515 39.8687C36.671 39.8687 37.5786 40.7762 37.5786 41.8957Z" fill="#FF8687"/>
<path d="M21.3633 29.7334C21.3633 30.8483 22.2755 31.7605 23.3904 31.7605C24.5053 31.7605 25.4175 30.8483 25.4175 29.7334V27.7063C25.4175 26.5914 24.5053 25.6792 23.3904 25.6792C22.2755 25.6792 21.3633 26.5914 21.3633 27.7063V29.7334Z" fill="url(#paint6_linear_594_3375)"/>
<path d="M37.5801 29.7334C37.5801 30.8483 38.4923 31.7605 39.6072 31.7605C40.7221 31.7605 41.6343 30.8483 41.6343 29.7334V27.7063C41.6343 26.5914 40.7221 25.6792 39.6072 25.6792C38.4923 25.6792 37.5801 26.5914 37.5801 27.7063V29.7334Z" fill="url(#paint7_linear_594_3375)"/>
<defs>
<filter id="filter0_i_594_3375" x="5.14453" y="4.02051" width="52.6992" height="54.0913" filterUnits="userSpaceOnUse" color-interpolation-filters="sRGB">
<feFlood flood-opacity="0" result="BackgroundImageFix"/>
<feBlend mode="normal" in="SourceGraphic" in2="BackgroundImageFix" result="shape"/>
<feColorMatrix in="SourceAlpha" type="matrix" values="0 0 0 0 0 0 0 0 0 0 0 0 0 0 0 0 0 0 127 0" result="hardAlpha"/>
<feOffset dy="-3.41406"/>
<feGaussianBlur stdDeviation="3.41406"/>
<feComposite in2="hardAlpha" operator="arithmetic" k2="-1" k3="1"/>
<feColorMatrix type="matrix" values="0 0 0 0 0 0 0 0 0 0 0 0 0 0 0 0 0 0 0.25 0"/>
<feBlend mode="normal" in2="shape" result="effect1_innerShadow_594_3375"/>
</filter>
<filter id="filter1_d_594_3375" x="19.6563" y="34.9614" width="23.6855" height="15.5767" filterUnits="userSpaceOnUse" color-interpolation-filters="sRGB">
<feFlood flood-opacity="0" result="BackgroundImageFix"/>
<feColorMatrix in="SourceAlpha" type="matrix" values="0 0 0 0 0 0 0 0 0 0 0 0 0 0 0 0 0 0 127 0" result="hardAlpha"/>
<feOffset dy="0.853515"/>
<feGaussianBlur stdDeviation="0.853515"/>
<feComposite in2="hardAlpha" operator="out"/>
<feColorMatrix type="matrix" values="0 0 0 0 0 0 0 0 0 0 0 0 0 0 0 0 0 0 0.1 0"/>
<feBlend mode="normal" in2="BackgroundImageFix" result="effect1_dropShadow_594_3375"/>
<feBlend mode="normal" in="SourceGraphic" in2="effect1_dropShadow_594_3375" result="shape"/>
</filter>
<radialGradient id="paint0_radial_594_3375" cx="0" cy="0" r="1" gradientUnits="userSpaceOnUse" gradientTransform="translate(31.4945 13.0474) rotate(90) scale(35.8476 37.2783)">
<stop offset="0.288691" stop-color="#FFB5B6"/>
<stop offset="1" stop-color="#D86E6F"/>
</radialGradient>
<linearGradient id="paint1_linear_594_3375" x1="50.9025" y1="26.1055" x2="61.6781" y2="17.2503" gradientUnits="userSpaceOnUse">
<stop stop-color="#1C1C1C"/>
<stop offset="1" stop-color="#1C1C1C" stop-opacity="0"/>
</linearGradient>
<linearGradient id="paint2_linear_594_3375" x1="12.078" y1="26.1055" x2="1.30237" y2="17.2503" gradientUnits="userSpaceOnUse">
<stop stop-color="#1C1C1C"/>
<stop offset="1" stop-color="#1C1C1C" stop-opacity="0"/>
</linearGradient>
<linearGradient id="paint3_linear_594_3375" x1="50.3809" y1="8.20654" x2="50.3809" y2="28.1219" gradientUnits="userSpaceOnUse">
<stop stop-color="#FBB8AB"/>
<stop offset="1" stop-color="#EA7273"/>
</linearGradient>
<linearGradient id="paint4_linear_594_3375" x1="12.6152" y1="8.20654" x2="12.6152" y2="28.1219" gradientUnits="userSpaceOnUse">
<stop stop-color="#FBB8AB"/>
<stop offset="1" stop-color="#EA7273"/>
</linearGradient>
<linearGradient id="paint5_linear_594_3375" x1="31.4988" y1="35.8149" x2="31.4988" y2="47.9775" gradientUnits="userSpaceOnUse">
<stop stop-color="#FFD7CF"/>
<stop offset="1" stop-color="#FFB1A1"/>
</linearGradient>
<linearGradient id="paint6_linear_594_3375" x1="31.4988" y1="31.7605" x2="31.4988" y2="18.596" gradientUnits="userSpaceOnUse">
<stop stop-color="#1C1C1C"/>
<stop offset="1" stop-color="#1C1C1C" stop-opacity="0.5"/>
</linearGradient>
<linearGradient id="paint7_linear_594_3375" x1="31.4988" y1="31.7605" x2="31.4988" y2="18.596" gradientUnits="userSpaceOnUse">
<stop stop-color="#1C1C1C"/>
<stop offset="1" stop-color="#1C1C1C" stop-opacity="0.5"/>
</linearGradient>
</defs>
</svg>
