<svg width="24" height="24" viewBox="0 0 24 24" fill="none" xmlns="http://www.w3.org/2000/svg">
<path d="M10.5662 2.5C10.1111 2.5 9.72212 2.82166 9.63472 3.26816L9.31743 4.89727C8.53771 5.19211 7.81674 5.60403 7.18364 6.12373L5.62134 5.58564C5.19099 5.43744 4.7175 5.61539 4.4895 6.00869L3.05708 8.49131C2.83003 8.88556 2.91267 9.38608 3.25562 9.68437L4.50806 10.7735C4.44292 11.1738 4.40044 11.5813 4.40044 12C4.40044 12.4187 4.44292 12.8262 4.50806 13.2265L3.25562 14.3156C2.91267 14.6139 2.83003 15.1144 3.05708 15.5087L4.4895 17.9913C4.71655 18.3856 5.19099 18.5635 5.62134 18.4162L7.18364 17.8781C7.81653 18.3975 8.53806 18.808 9.31743 19.1027L9.63472 20.7318C9.72212 21.1783 10.1111 21.5 10.5662 21.5H13.4347C13.8898 21.5 14.2788 21.1783 14.3662 20.7318L14.6834 19.1027C15.4632 18.8079 16.1841 18.396 16.8172 17.8763L18.3795 18.4144C18.8099 18.5626 19.2834 18.3856 19.5114 17.9913L20.9438 15.5068C21.1709 15.1126 21.0882 14.6139 20.7453 14.3156L19.4928 13.2265C19.558 12.8262 19.6004 12.4187 19.6004 12C19.6004 11.5813 19.558 11.1738 19.4928 10.7735L20.7453 9.68437C21.0882 9.38608 21.1709 8.88556 20.9438 8.49131L19.5114 6.00869C19.2843 5.61444 18.8099 5.43654 18.3795 5.58379L16.8172 6.12188C16.1844 5.6025 15.4628 5.19198 14.6834 4.89727L14.3662 3.26816C14.2788 2.82166 13.8898 2.5 13.4347 2.5H10.5662ZM12.0004 8.2C14.099 8.2 15.8004 9.90145 15.8004 12C15.8004 14.0985 14.099 15.8 12.0004 15.8C9.90189 15.8 8.20044 14.0985 8.20044 12C8.20044 9.90145 9.90189 8.2 12.0004 8.2Z" fill="#ECEEF0"/>
</svg>
