<svg width="22" height="22" viewBox="0 0 22 22" fill="none" xmlns="http://www.w3.org/2000/svg">
<path d="M4.80564 3.04389C4.87732 2.65464 5.43518 2.65464 5.50686 3.04389L5.74569 4.34092C5.8314 4.80636 6.19559 5.17055 6.66104 5.25626L7.95806 5.4951C8.34731 5.56677 8.34731 6.12463 7.95806 6.19631L6.66104 6.43515C6.19559 6.52085 5.8314 6.88504 5.74569 7.35049L5.50686 8.64751C5.43518 9.03676 4.87732 9.03677 4.80564 8.64751L4.56681 7.35049C4.4811 6.88504 4.11691 6.52085 3.65146 6.43515L2.35444 6.19631C1.96519 6.12463 1.96519 5.56678 2.35444 5.4951L3.65146 5.25626C4.11691 5.17055 4.4811 4.80636 4.56681 4.34092L4.80564 3.04389Z" fill="black"/>
<path d="M12.2834 4.77571C12.4427 3.9107 13.6823 3.9107 13.8416 4.77571L14.3724 7.65798C14.5628 8.6923 15.3721 9.50162 16.4065 9.69208L19.2887 10.2228C20.1537 10.3821 20.1538 11.6218 19.2887 11.7811L16.4065 12.3118C15.3721 12.5023 14.5628 13.3116 14.3724 14.3459L13.8416 17.2282C13.6823 18.0932 12.4427 18.0932 12.2834 17.2282L11.7526 14.3459C11.5622 13.3116 10.7529 12.5023 9.71853 12.3118L6.83626 11.7811C5.97125 11.6218 5.97125 10.3821 6.83625 10.2228L9.71853 9.69208C10.7529 9.50162 11.5622 8.69231 11.7526 7.65799L12.2834 4.77571Z" fill="black"/>
<path d="M6.49915 14.0115C6.43544 13.6655 5.93956 13.6655 5.87585 14.0115L5.66355 15.1644C5.58737 15.5781 5.26364 15.9018 4.84991 15.978L3.697 16.1903C3.351 16.254 3.351 16.7499 3.697 16.8136L4.84991 17.0259C5.26364 17.1021 5.58737 17.4258 5.66355 17.8395L5.87585 18.9925C5.93956 19.3385 6.43544 19.3385 6.49915 18.9925L6.71145 17.8395C6.78763 17.4258 7.11136 17.1021 7.52509 17.0259L8.678 16.8136C9.024 16.7499 9.024 16.254 8.678 16.1903L7.52509 15.978C7.11136 15.9018 6.78763 15.5781 6.71145 15.1644L6.49915 14.0115Z" fill="black"/>
</svg>
