<svg width="39" height="39" viewBox="0 0 39 39" fill="none" xmlns="http://www.w3.org/2000/svg">
<path d="M12.1172 19.0044C12.1172 17.3656 13.4472 16.0356 15.0859 16.0356C16.7247 16.0356 18.0547 17.3656 18.0547 19.0044V29.0032H26.3078V24.2532H35.8553V34.6557C35.8553 35.4632 35.2022 36.1282 34.3828 36.1282H23.4103C20.4534 36.1282 18.0547 33.7294 18.0547 30.7726V33.1594C18.0547 34.7981 16.7247 36.1281 15.0859 36.1281C13.4472 36.1281 12.1172 34.7981 12.1172 33.1594V19.0044Z" fill="#D67D00"/>
<path d="M15.7408 11.9622L34.5627 20.1322C35.3583 20.4766 35.8689 21.2485 35.8689 22.1153L35.8689 33.7647H27.782C25.5495 33.7647 23.5427 32.7434 22.2958 31.0334C21.7139 30.2378 20.6333 30.024 19.7783 30.499C18.1395 31.4134 15.907 32.6603 15.907 32.6603C14.204 33.6419 12.0416 33.057 11.0504 31.3747H9.75V27.2185L8.17641 27.2335C7.61829 28.1835 6.62079 28.7178 5.59954 28.7178C5.08891 28.7178 4.57829 28.5872 4.11516 28.3141C2.69016 27.4828 2.20329 25.6778 3.02266 24.2528L9.19766 13.9453C10.587 11.7603 13.3658 10.9172 15.7408 11.9622ZM9.89906 24.2497H14.7969V25.0694L17.4864 23.5165C17.6668 23.4124 17.8514 23.3266 18.0384 23.2578C17.8427 21.1491 16.0726 19.5028 13.912 19.5028C13.1164 19.5028 12.3802 21.1178 11.9883 21.8185L9.89906 24.2497Z" fill="#FFC83D"/>
<path d="M23.032 2.9731L25.8583 4.61185C26.2145 4.81372 26.3333 5.26497 26.1314 5.62122L14.9677 24.971L12.3445 26.4856C10.6464 27.4712 10.0527 29.6443 11.0383 31.3543C11.0791 31.4246 11.1219 31.493 11.1666 31.5594L10.5039 32.7081C10.3139 33.0406 10.0408 33.3375 9.72017 33.5631L6.45454 36.0331C6.07454 36.2943 5.55204 35.9975 5.58767 35.5343L6.03892 31.4493C6.07454 31.0456 6.19329 30.6537 6.39517 30.3093L22.0227 3.24622C22.2245 2.88997 22.6758 2.77122 23.032 2.9731Z" fill="#00AE58"/>
<path d="M10.4036 32.8665L6.33075 30.4229C6.16681 30.7387 6.06896 31.0893 6.03719 31.4493L5.72266 34.2967L7.46714 35.2658L9.71844 33.563C9.98717 33.3739 10.2225 33.1348 10.4036 32.8665Z" fill="#FBB8AB"/>
<path d="M5.81329 33.4209L5.58767 35.5346C5.55204 35.9978 6.07454 36.2946 6.45454 36.0334L8.11704 34.7628L5.81329 33.4209Z" fill="black"/>
<path d="M19.7188 7.23613L23.8275 9.61113L25.0625 7.47363L20.9537 5.09863L19.7188 7.23613Z" fill="#D3D3D3"/>
</svg>
