<svg width="25" height="25" viewBox="0 0 25 25" fill="none" xmlns="http://www.w3.org/2000/svg">
<path d="M12.5 19.5122C17.4706 19.5122 21.5 15.4828 21.5 10.5122C21.5 5.54164 17.4706 1.51221 12.5 1.51221C7.52943 1.51221 3.5 5.54164 3.5 10.5122C3.5 15.4828 7.52943 19.5122 12.5 19.5122Z" fill="#8E3AF8"/>
<path d="M18.5 17.2622H6.5L5.8089 20.3976C5.55935 21.0699 6.13406 21.7622 6.9432 21.7622H18.0594C18.8685 21.7622 19.4356 21.0699 19.1937 20.3976L18.5 17.2622Z" fill="#B4ACBC"/>
<path d="M11.1538 3.96057C11.0638 3.92279 10.9962 3.84722 10.9587 3.7641L10.6738 3.09155C10.6213 2.98576 10.4712 2.98576 10.4187 3.09155L10.1338 3.7641C10.0963 3.85478 10.0287 3.92279 9.93875 3.96057L9.57875 4.12682C9.47375 4.17972 9.47375 4.33085 9.57875 4.38374L9.93875 4.54999C10.0287 4.58777 10.0963 4.66334 10.1338 4.74647L10.4187 5.41901C10.4712 5.5248 10.6213 5.5248 10.6738 5.41901L10.9587 4.74647C10.9962 4.65579 11.0638 4.58777 11.1538 4.54999L11.5138 4.38374C11.6188 4.33085 11.6188 4.17972 11.5138 4.12682L11.1538 3.96057Z" fill="#FCD53F"/>
<path d="M18.59 7.36485C18.47 7.31195 18.3725 7.20616 18.32 7.08525L17.915 6.12556C17.84 5.97442 17.6225 5.97442 17.5475 6.12556L17.1425 7.08525C17.09 7.20616 16.9925 7.31195 16.8725 7.36485L16.3625 7.59911C16.2125 7.67467 16.2125 7.89382 16.3625 7.96938L16.8725 8.20364C16.9925 8.25654 17.09 8.36233 17.1425 8.48324L17.5475 9.44294C17.6225 9.59407 17.84 9.59407 17.915 9.44294L18.32 8.48324C18.3725 8.36233 18.47 8.25654 18.59 8.20364L19.1 7.96938C19.25 7.89382 19.25 7.67467 19.1 7.59911L18.59 7.36485Z" fill="#FCD53F"/>
<path d="M9.93959 9.78494C10.0436 10.0489 10.2379 10.2615 10.4876 10.3788L11.5211 10.87C11.8263 11.0313 11.8263 11.4931 11.5211 11.6544L10.4876 12.1456C10.2448 12.2629 10.0436 12.4756 9.93959 12.7395L9.1211 14.7703C8.9685 15.0929 8.5315 15.0929 8.3789 14.7703L7.56041 12.7395C7.45636 12.4756 7.26213 12.2629 7.01242 12.1456L5.9789 11.6544C5.6737 11.4931 5.6737 11.0313 5.9789 10.87L7.01242 10.3788C7.2552 10.2615 7.45636 10.0489 7.56041 9.78494L8.3789 7.75414C8.5315 7.43156 8.9685 7.43156 9.1211 7.75414L9.93959 9.78494Z" fill="#FCD53F"/>
</svg>
