<svg width="24" height="24" viewBox="0 0 24 24" fill="none" xmlns="http://www.w3.org/2000/svg">
<g clip-path="url(#clip0_729_502)">
<path d="M4.89613 8.19554C4.91912 8.11787 5.23058 7.73942 5.29177 7.80061L14.9051 17.4139C14.9663 17.4752 14.5844 17.7895 14.5066 17.8124L3.09951 21.069C2.23799 21.3232 1.3724 20.4568 1.62736 19.5956L4.89613 8.19554Z" fill="#4AFF81"/>
<path d="M14.9253 17.5608C13.9127 18.5734 10.9029 17.2053 8.20274 14.5051C5.50257 11.805 4.13449 8.7952 5.14706 7.78263C6.15962 6.77007 9.16939 8.13814 11.8696 10.8383C14.5697 13.5385 15.9378 16.5483 14.9253 17.5608Z" fill="#00952D"/>
<mask id="mask0_729_502" style="mask-type:alpha" maskUnits="userSpaceOnUse" x="4" y="7" width="12" height="11">
<path d="M14.9253 17.5608C13.9127 18.5734 10.9029 17.2053 8.20274 14.5051C5.50257 11.805 4.13449 8.7952 5.14706 7.78263C6.15962 6.77007 9.16939 8.13814 11.8696 10.8383C14.5697 13.5385 15.9378 16.5483 14.9253 17.5608Z" fill="#00952D"/>
</mask>
<g mask="url(#mask0_729_502)">
<path d="M6.9689 12.6272C8.76346 11.3424 11.411 7.64348 7.64446 3.12584" stroke="#FCD53F" stroke-width="1.49808" stroke-linecap="round"/>
</g>
<path fill-rule="evenodd" clip-rule="evenodd" d="M6.53098 12.0181C7.31877 11.4541 8.3011 10.3468 8.66381 8.90593C9.01444 7.51313 8.81437 5.70098 7.06726 3.60544C6.80235 3.2877 6.84518 2.81537 7.16292 2.55046C7.48066 2.28555 7.95299 2.32838 8.2179 2.64612C10.2373 5.06822 10.5967 7.36437 10.1166 9.27165C9.64852 11.1309 8.40982 12.5154 7.40305 13.2362C7.32303 13.2935 7.23557 13.3328 7.14549 13.3548C6.8469 12.9932 6.50969 12.5505 6.30532 12.2758C6.35787 12.1766 6.43357 12.0879 6.53098 12.0181Z" fill="#FCD53F"/>
<path d="M9.65234 16.621C10.6155 14.5564 14.1887 11.0464 20.7766 13.524" stroke="#4AFF81" stroke-width="1.49808" stroke-linecap="round"/>
<path d="M17.7207 10.672C18.3449 9.92776 20.2847 8.71296 23.0504 9.80772" stroke="#F70A8D" stroke-width="1.49808" stroke-linecap="round"/>
<circle cx="6.02639" cy="5.40822" r="0.864279" fill="#FCD53F"/>
<circle cx="10.9014" cy="1.3633" r="0.864279" fill="#F70A8D"/>
<circle cx="19.5225" cy="6.5049" r="0.864279" fill="#F70A8D"/>
<circle cx="17.8819" cy="16.6211" r="0.864279" fill="#FCD53F"/>
<path fill-rule="evenodd" clip-rule="evenodd" d="M17.3058 2.24762C17.7085 2.34237 17.9581 2.74562 17.8633 3.14831C17.5087 4.65558 16.9488 5.79609 16.4113 6.58143C16.6643 7.02428 16.9041 7.68714 16.9903 8.54506C17.0317 8.95667 16.7315 9.32388 16.3199 9.36525C15.9083 9.40661 15.5411 9.10647 15.4997 8.69486C15.466 8.35932 15.4037 8.07863 15.3327 7.85167C14.98 8.21014 14.4892 8.43241 13.9466 8.43241C12.8726 8.43241 12.002 7.56177 12.002 6.48778C12.002 5.41379 12.8726 4.54316 13.9466 4.54316C14.5604 4.54316 15.1078 4.82756 15.4642 5.27179C15.8044 4.67509 16.1569 3.86012 16.4051 2.80519C16.4998 2.4025 16.9031 2.15287 17.3058 2.24762ZM13.9466 6.93433C14.1932 6.93433 14.3931 6.7344 14.3931 6.48778C14.3931 6.24116 14.1932 6.04124 13.9466 6.04124C13.7 6.04124 13.5 6.24116 13.5 6.48778C13.5 6.7344 13.7 6.93433 13.9466 6.93433Z" fill="#4AFF81"/>
</g>
<defs>
<clipPath id="clip0_729_502">
<rect width="24" height="24" fill="white"/>
</clipPath>
</defs>
</svg>
