<svg width="33" height="33" viewBox="0 0 33 33" fill="none" xmlns="http://www.w3.org/2000/svg">
<g filter="url(#filter0_i_708_607)">
<path d="M20.8101 4.99083C21.0533 3.66973 22.9467 3.66972 23.1899 4.99082L24.0005 9.39285C24.2914 10.9725 25.5275 12.2086 27.1071 12.4995L31.5092 13.3101C32.8303 13.5533 32.8303 15.4467 31.5092 15.6899L27.1072 16.5005C25.5275 16.7914 24.2914 18.0275 24.0005 19.6071L23.1899 24.0092C22.9467 25.3303 21.0533 25.3303 20.8101 24.0092L19.9995 19.6072C19.7086 18.0275 18.4725 16.7914 16.8928 16.5005L12.4908 15.6899C11.1697 15.4467 11.1697 13.5533 12.4908 13.3101L16.8928 12.4995C18.4725 12.2086 19.7086 10.9725 19.9995 9.39285L20.8101 4.99083Z" fill="#FEE03C"/>
</g>
<g filter="url(#filter1_i_708_607)">
<path d="M6.49003 5.06819C6.59429 4.50201 7.40571 4.50201 7.50997 5.06819L7.85737 6.95477C7.98204 7.63178 8.51177 8.16152 9.18878 8.28618L11.0754 8.63358C11.6415 8.73784 11.6415 9.54927 11.0754 9.65353L9.18878 10.0009C8.51177 10.1256 7.98204 10.6553 7.85737 11.3323L7.50997 13.2189C7.40571 13.7851 6.59429 13.7851 6.49003 13.2189L6.14263 11.3323C6.01796 10.6553 5.48823 10.1256 4.81122 10.0009L2.92464 9.65353C2.35845 9.54927 2.35845 8.73784 2.92464 8.63358L4.81122 8.28618C5.48823 8.16152 6.01796 7.63179 6.14263 6.95478L6.49003 5.06819Z" fill="#FEE03C"/>
</g>
<g filter="url(#filter2_i_708_607)">
<path d="M9.54669 20.3521C9.63937 19.8488 10.3606 19.8488 10.4533 20.3521L10.7621 22.029C10.8729 22.6308 11.3438 23.1017 11.9456 23.2125L13.6225 23.5213C14.1258 23.614 14.1258 24.3352 13.6225 24.4279L11.9456 24.7367C11.3438 24.8475 10.8729 25.3184 10.7621 25.9202L10.4533 27.5972C10.3606 28.1004 9.63937 28.1004 9.54669 27.5972L9.23789 25.9202C9.12708 25.3184 8.6562 24.8475 8.05442 24.7367L6.37746 24.4279C5.87418 24.3352 5.87418 23.614 6.37746 23.5213L8.05442 23.2125C8.6562 23.1017 9.12708 22.6308 9.23789 22.029L9.54669 20.3521Z" fill="#FEE03C"/>
</g>
<defs>
<filter id="filter0_i_708_607" x="11.0043" y="3.5043" width="21.4957" height="21.4957" filterUnits="userSpaceOnUse" color-interpolation-filters="sRGB">
<feFlood flood-opacity="0" result="BackgroundImageFix"/>
<feBlend mode="normal" in="SourceGraphic" in2="BackgroundImageFix" result="shape"/>
<feColorMatrix in="SourceAlpha" type="matrix" values="0 0 0 0 0 0 0 0 0 0 0 0 0 0 0 0 0 0 127 0" result="hardAlpha"/>
<feOffset dx="-0.495695" dy="-0.495695"/>
<feGaussianBlur stdDeviation="0.309809"/>
<feComposite in2="hardAlpha" operator="arithmetic" k2="-1" k3="1"/>
<feColorMatrix type="matrix" values="0 0 0 0 0.890299 0 0 0 0 0.503025 0 0 0 0 0.0496301 0 0 0 1 0"/>
<feBlend mode="normal" in2="shape" result="effect1_innerShadow_708_607"/>
</filter>
<filter id="filter1_i_708_607" x="2.0043" y="4.14786" width="9.4957" height="9.4957" filterUnits="userSpaceOnUse" color-interpolation-filters="sRGB">
<feFlood flood-opacity="0" result="BackgroundImageFix"/>
<feBlend mode="normal" in="SourceGraphic" in2="BackgroundImageFix" result="shape"/>
<feColorMatrix in="SourceAlpha" type="matrix" values="0 0 0 0 0 0 0 0 0 0 0 0 0 0 0 0 0 0 127 0" result="hardAlpha"/>
<feOffset dx="-0.495695" dy="-0.495695"/>
<feGaussianBlur stdDeviation="0.309809"/>
<feComposite in2="hardAlpha" operator="arithmetic" k2="-1" k3="1"/>
<feColorMatrix type="matrix" values="0 0 0 0 0.890299 0 0 0 0 0.503025 0 0 0 0 0.0496301 0 0 0 1 0"/>
<feBlend mode="normal" in2="shape" result="effect1_innerShadow_708_607"/>
</filter>
<filter id="filter2_i_708_607" x="5.5043" y="19.4789" width="8.4957" height="8.4957" filterUnits="userSpaceOnUse" color-interpolation-filters="sRGB">
<feFlood flood-opacity="0" result="BackgroundImageFix"/>
<feBlend mode="normal" in="SourceGraphic" in2="BackgroundImageFix" result="shape"/>
<feColorMatrix in="SourceAlpha" type="matrix" values="0 0 0 0 0 0 0 0 0 0 0 0 0 0 0 0 0 0 127 0" result="hardAlpha"/>
<feOffset dx="-0.495695" dy="-0.495695"/>
<feGaussianBlur stdDeviation="0.309809"/>
<feComposite in2="hardAlpha" operator="arithmetic" k2="-1" k3="1"/>
<feColorMatrix type="matrix" values="0 0 0 0 0.890299 0 0 0 0 0.503025 0 0 0 0 0.0496301 0 0 0 1 0"/>
<feBlend mode="normal" in2="shape" result="effect1_innerShadow_708_607"/>
</filter>
</defs>
</svg>
