<svg width="32" height="33" viewBox="0 0 32 33" fill="none" xmlns="http://www.w3.org/2000/svg">
<rect y="0.5" width="32" height="32" rx="16" fill="#FCC834"/>
<g filter="url(#filter0_i_729_551)">
<path d="M6.17969 16.5967C6.17969 11.5889 10.2393 7.5293 15.2471 7.5293H16.7567C21.7645 7.5293 25.8241 11.5889 25.8241 16.5967V17.3524C25.8241 22.3602 21.7645 26.4198 16.7567 26.4198H15.2471C10.2393 26.4198 6.17969 22.3602 6.17969 17.3524V16.5967Z" fill="url(#paint0_radial_729_551)"/>
</g>
<path d="M25.2631 13.4516C25.206 13.2726 25.0021 12.7855 24.8878 12.5767L22.9043 14.8758L25.2631 13.4516Z" fill="url(#paint1_linear_729_551)"/>
<path d="M6.73492 13.4516C6.79209 13.2726 6.99591 12.7855 7.11025 12.5767L9.09375 14.8758L6.73492 13.4516Z" fill="url(#paint2_linear_729_551)"/>
<path d="M22.9745 8.69242L24.6349 10.5136C25.054 10.9718 25.054 11.7238 24.6349 12.1821L22.9745 13.9974C22.292 14.7435 21.1313 14.2147 21.1313 13.1632V9.53252C21.1313 8.48093 22.292 7.9522 22.9745 8.69242Z" fill="#FBB8AB"/>
<path d="M22.9637 8.2441L24.9008 10.4976C25.3898 11.0646 25.3898 11.9951 24.9008 12.5621L22.9637 14.8083C22.1675 15.7315 20.8134 15.0773 20.8134 13.7761V9.28362C20.8134 7.98241 22.1675 7.32817 22.9637 8.2441Z" fill="url(#paint3_linear_729_551)"/>
<path d="M9.04022 8.2441L7.10307 10.4976C6.61408 11.0646 6.61408 11.9951 7.10307 12.5621L9.04022 14.8083C9.83639 15.7315 11.1905 15.0773 11.1905 13.7761V9.28362C11.1905 7.98241 9.83639 7.32817 9.04022 8.2441Z" fill="url(#paint4_linear_729_551)"/>
<g filter="url(#filter1_d_729_551)">
<path d="M14.4915 18.1074C13.2395 18.1074 12.2246 19.1223 12.2246 20.3743C12.2246 21.6262 13.2395 22.6411 14.4915 22.6411H17.514C18.7659 22.6411 19.7808 21.6262 19.7808 20.3743C19.7808 19.1223 18.7659 18.1074 17.514 18.1074H14.4915Z" fill="url(#paint5_linear_729_551)"/>
</g>
<path d="M15.2476 20.3743C15.2476 20.7916 14.9093 21.1299 14.4919 21.1299C14.0746 21.1299 13.7363 20.7916 13.7363 20.3743C13.7363 19.957 14.0746 19.6187 14.4919 19.6187C14.9093 19.6187 15.2476 19.957 15.2476 20.3743Z" fill="#FF8687"/>
<path d="M18.2701 20.3743C18.2701 20.7916 17.9317 21.1299 17.5144 21.1299C17.0971 21.1299 16.7588 20.7916 16.7588 20.3743C16.7588 19.957 17.0971 19.6187 17.5144 19.6187C17.9317 19.6187 18.2701 19.957 18.2701 20.3743Z" fill="#FF8687"/>
<path d="M12.2246 15.8413C12.2246 16.2569 12.5646 16.5969 12.9802 16.5969C13.3958 16.5969 13.7359 16.2569 13.7359 15.8413V15.0857C13.7359 14.6701 13.3958 14.3301 12.9802 14.3301C12.5646 14.3301 12.2246 14.6701 12.2246 15.0857V15.8413Z" fill="url(#paint6_linear_729_551)"/>
<path d="M18.2696 15.8413C18.2696 16.2569 18.6096 16.5969 19.0252 16.5969C19.4408 16.5969 19.7808 16.2569 19.7808 15.8413V15.0857C19.7808 14.6701 19.4408 14.3301 19.0252 14.3301C18.6096 14.3301 18.2696 14.6701 18.2696 15.0857V15.8413Z" fill="url(#paint7_linear_729_551)"/>
<defs>
<filter id="filter0_i_729_551" x="6.17969" y="6.25667" width="19.6445" height="20.1632" filterUnits="userSpaceOnUse" color-interpolation-filters="sRGB">
<feFlood flood-opacity="0" result="BackgroundImageFix"/>
<feBlend mode="normal" in="SourceGraphic" in2="BackgroundImageFix" result="shape"/>
<feColorMatrix in="SourceAlpha" type="matrix" values="0 0 0 0 0 0 0 0 0 0 0 0 0 0 0 0 0 0 127 0" result="hardAlpha"/>
<feOffset dy="-1.27262"/>
<feGaussianBlur stdDeviation="1.27262"/>
<feComposite in2="hardAlpha" operator="arithmetic" k2="-1" k3="1"/>
<feColorMatrix type="matrix" values="0 0 0 0 0 0 0 0 0 0 0 0 0 0 0 0 0 0 0.25 0"/>
<feBlend mode="normal" in2="shape" result="effect1_innerShadow_729_551"/>
</filter>
<filter id="filter1_d_729_551" x="11.5883" y="17.7893" width="8.82926" height="5.80632" filterUnits="userSpaceOnUse" color-interpolation-filters="sRGB">
<feFlood flood-opacity="0" result="BackgroundImageFix"/>
<feColorMatrix in="SourceAlpha" type="matrix" values="0 0 0 0 0 0 0 0 0 0 0 0 0 0 0 0 0 0 127 0" result="hardAlpha"/>
<feOffset dy="0.318156"/>
<feGaussianBlur stdDeviation="0.318156"/>
<feComposite in2="hardAlpha" operator="out"/>
<feColorMatrix type="matrix" values="0 0 0 0 0 0 0 0 0 0 0 0 0 0 0 0 0 0 0.1 0"/>
<feBlend mode="normal" in2="BackgroundImageFix" result="effect1_dropShadow_729_551"/>
<feBlend mode="normal" in="SourceGraphic" in2="effect1_dropShadow_729_551" result="shape"/>
</filter>
<radialGradient id="paint0_radial_729_551" cx="0" cy="0" r="1" gradientUnits="userSpaceOnUse" gradientTransform="translate(16.0019 9.62155) rotate(90) scale(13.3626 13.8959)">
<stop offset="0.288691" stop-color="#FFB5B6"/>
<stop offset="1" stop-color="#D86E6F"/>
</radialGradient>
<linearGradient id="paint1_linear_729_551" x1="23.2349" y1="14.4887" x2="27.2516" y2="11.1878" gradientUnits="userSpaceOnUse">
<stop stop-color="#1C1C1C"/>
<stop offset="1" stop-color="#1C1C1C" stop-opacity="0"/>
</linearGradient>
<linearGradient id="paint2_linear_729_551" x1="8.76317" y1="14.4887" x2="4.74645" y2="11.1878" gradientUnits="userSpaceOnUse">
<stop stop-color="#1C1C1C"/>
<stop offset="1" stop-color="#1C1C1C" stop-opacity="0"/>
</linearGradient>
<linearGradient id="paint3_linear_729_551" x1="23.0405" y1="7.81689" x2="23.0405" y2="15.2405" gradientUnits="userSpaceOnUse">
<stop stop-color="#FBB8AB"/>
<stop offset="1" stop-color="#EA7273"/>
</linearGradient>
<linearGradient id="paint4_linear_729_551" x1="8.96342" y1="7.81689" x2="8.96342" y2="15.2405" gradientUnits="userSpaceOnUse">
<stop stop-color="#FBB8AB"/>
<stop offset="1" stop-color="#EA7273"/>
</linearGradient>
<linearGradient id="paint5_linear_729_551" x1="16.0027" y1="18.1074" x2="16.0027" y2="22.6411" gradientUnits="userSpaceOnUse">
<stop stop-color="#FFD7CF"/>
<stop offset="1" stop-color="#FFB1A1"/>
</linearGradient>
<linearGradient id="paint6_linear_729_551" x1="16.0027" y1="16.5969" x2="16.0027" y2="11.6898" gradientUnits="userSpaceOnUse">
<stop stop-color="#1C1C1C"/>
<stop offset="1" stop-color="#1C1C1C" stop-opacity="0.5"/>
</linearGradient>
<linearGradient id="paint7_linear_729_551" x1="16.0027" y1="16.5969" x2="16.0027" y2="11.6898" gradientUnits="userSpaceOnUse">
<stop stop-color="#1C1C1C"/>
<stop offset="1" stop-color="#1C1C1C" stop-opacity="0.5"/>
</linearGradient>
</defs>
</svg>
