<svg width="21" height="20" viewBox="0 0 21 20" fill="none" xmlns="http://www.w3.org/2000/svg">
<path d="M4.86877 2.7654C4.93393 2.41153 5.44107 2.41153 5.50623 2.7654L5.72336 3.94451C5.80127 4.36764 6.13236 4.69873 6.55549 4.77664L7.7346 4.99377C8.08847 5.05893 8.08847 5.56607 7.7346 5.63123L6.55549 5.84836C6.13236 5.92627 5.80127 6.25736 5.72336 6.68049L5.50623 7.8596C5.44107 8.21347 4.93393 8.21347 4.86877 7.8596L4.65164 6.68049C4.57373 6.25736 4.24264 5.92627 3.81951 5.84836L2.6404 5.63123C2.28653 5.56607 2.28653 5.05893 2.6404 4.99377L3.81951 4.77664C4.24264 4.69873 4.57373 4.36764 4.65164 3.94451L4.86877 2.7654Z" fill="black"/>
<path d="M11.6667 4.33978C11.8115 3.55341 12.9385 3.55341 13.0833 4.33977L13.5658 6.96003C13.7389 7.90032 14.4747 8.63606 15.415 8.80921L18.0352 9.29171C18.8216 9.43651 18.8216 10.5635 18.0352 10.7083L15.415 11.1908C14.4747 11.3639 13.7389 12.0997 13.5658 13.04L13.0833 15.6602C12.9385 16.4466 11.8115 16.4466 11.6667 15.6602L11.1842 13.04C11.0111 12.0997 10.2753 11.3639 9.33503 11.1908L6.71478 10.7083C5.92841 10.5635 5.92841 9.43651 6.71477 9.29171L9.33503 8.80921C10.2753 8.63606 11.0111 7.90032 11.1842 6.96003L11.6667 4.33978Z" fill="black"/>
<path d="M6.40832 12.7359C6.3504 12.4214 5.8996 12.4214 5.84168 12.7359L5.64868 13.784C5.57942 14.1601 5.28513 14.4544 4.90901 14.5237L3.86091 14.7167C3.54636 14.7746 3.54636 15.2254 3.86091 15.2833L4.90901 15.4763C5.28513 15.5456 5.57942 15.8399 5.64868 16.216L5.84168 17.2641C5.8996 17.5786 6.3504 17.5786 6.40832 17.2641L6.60132 16.216C6.67058 15.8399 6.96487 15.5456 7.34099 15.4763L8.38909 15.2833C8.70364 15.2254 8.70364 14.7746 8.38909 14.7167L7.34099 14.5237C6.96487 14.4544 6.67058 14.1601 6.60132 13.784L6.40832 12.7359Z" fill="black"/>
</svg>
