<svg width="24" height="24" viewBox="0 0 24 24" fill="none" xmlns="http://www.w3.org/2000/svg">
<path d="M9.55753 14.6627L17.0325 7.1877C17.2325 6.9877 17.4659 6.8877 17.7325 6.8877C17.9992 6.8877 18.2325 6.9877 18.4325 7.1877C18.6325 7.3877 18.7325 7.6252 18.7325 7.9002C18.7325 8.1752 18.6325 8.4127 18.4325 8.6127L10.2575 16.8127C10.0575 17.0127 9.8242 17.1127 9.55753 17.1127C9.29086 17.1127 9.05753 17.0127 8.85753 16.8127L5.55753 13.5127C5.35753 13.3127 5.2617 13.0752 5.27003 12.8002C5.27836 12.5252 5.38253 12.2877 5.58253 12.0877C5.78253 11.8877 6.02003 11.7877 6.29503 11.7877C6.57003 11.7877 6.80753 11.8877 7.00753 12.0877L9.55753 14.6627Z" fill="#9C9EA0"/>
</svg>
