<svg width="25" height="25" viewBox="0 0 25 25" fill="none" xmlns="http://www.w3.org/2000/svg">
<path d="M3.5 10.9229V4.92285C3.5 4.63952 3.59583 4.40202 3.7875 4.21035C3.97917 4.01868 4.21667 3.92285 4.5 3.92285H10.5C10.7833 3.92285 11.0208 4.01868 11.2125 4.21035C11.4042 4.40202 11.5 4.63952 11.5 4.92285V10.9229C11.5 11.2062 11.4042 11.4437 11.2125 11.6354C11.0208 11.827 10.7833 11.9229 10.5 11.9229H4.5C4.21667 11.9229 3.97917 11.827 3.7875 11.6354C3.59583 11.4437 3.5 11.2062 3.5 10.9229ZM5.5 9.92285H9.5V5.92285H5.5V9.92285ZM3.5 20.9229V14.9229C3.5 14.6395 3.59583 14.402 3.7875 14.2104C3.97917 14.0187 4.21667 13.9229 4.5 13.9229H10.5C10.7833 13.9229 11.0208 14.0187 11.2125 14.2104C11.4042 14.402 11.5 14.6395 11.5 14.9229V20.9229C11.5 21.2062 11.4042 21.4437 11.2125 21.6354C11.0208 21.827 10.7833 21.9229 10.5 21.9229H4.5C4.21667 21.9229 3.97917 21.827 3.7875 21.6354C3.59583 21.4437 3.5 21.2062 3.5 20.9229ZM5.5 19.9229H9.5V15.9229H5.5V19.9229ZM13.5 10.9229V4.92285C13.5 4.63952 13.5958 4.40202 13.7875 4.21035C13.9792 4.01868 14.2167 3.92285 14.5 3.92285H20.5C20.7833 3.92285 21.0208 4.01868 21.2125 4.21035C21.4042 4.40202 21.5 4.63952 21.5 4.92285V10.9229C21.5 11.2062 21.4042 11.4437 21.2125 11.6354C21.0208 11.827 20.7833 11.9229 20.5 11.9229H14.5C14.2167 11.9229 13.9792 11.827 13.7875 11.6354C13.5958 11.4437 13.5 11.2062 13.5 10.9229ZM15.5 9.92285H19.5V5.92285H15.5V9.92285ZM19.5 21.9229V19.9229H21.5V21.9229H19.5ZM13.5 15.9229V13.9229H15.5V15.9229H13.5ZM15.5 17.9229V15.9229H17.5V17.9229H15.5ZM13.5 19.9229V17.9229H15.5V19.9229H13.5ZM15.5 21.9229V19.9229H17.5V21.9229H15.5ZM17.5 19.9229V17.9229H19.5V19.9229H17.5ZM17.5 15.9229V13.9229H19.5V15.9229H17.5ZM19.5 17.9229V15.9229H21.5V17.9229H19.5Z" fill="#E8EAED"/>
</svg>
