<svg width="39" height="39" viewBox="0 0 39 39" fill="none" xmlns="http://www.w3.org/2000/svg">
<path d="M32.25 22C32.25 13.7157 25.5343 7 17.25 7C8.96573 7 2.25 13.7157 2.25 22C2.25 30.2843 8.96573 37 17.25 37C25.5343 37 32.25 30.2843 32.25 22ZM28.5 22C28.5 28.2132 23.4632 33.25 17.25 33.25C11.0368 33.25 6 28.2132 6 22C6 15.7868 11.0368 10.75 17.25 10.75C23.4632 10.75 28.5 15.7868 28.5 22ZM17.25 29.5C13.1079 29.5 9.75 26.1421 9.75 22C9.75 17.8579 13.1079 14.5 17.25 14.5C21.3921 14.5 24.75 17.8579 24.75 22C24.75 26.1421 21.3921 29.5 17.25 29.5ZM21 22C21 19.9289 19.3211 18.25 17.25 18.25C15.1789 18.25 13.5 19.9289 13.5 22C13.5 24.0711 15.1789 25.75 17.25 25.75C19.3211 25.75 21 24.0711 21 22Z" fill="#56D389"/>
<path d="M17.5632 21.6775C17.9938 22.1075 18.6724 22.1075 19.103 21.6775L24.427 16.3603C24.8577 15.9303 24.8577 15.2526 24.427 14.8225C23.9964 14.3925 23.3179 14.3925 22.8872 14.8225L17.5632 20.1397C17.1456 20.5697 17.1456 21.2474 17.5632 21.6775Z" fill="#9B9B9B"/>
<path d="M24.3222 12.1163L23.7597 10.1288C23.0847 7.75376 23.7472 5.19123 25.4972 3.45373L26.6097 2.34125C27.2222 1.71625 28.2722 1.99123 28.5097 2.82873L29.75 7L24.3222 12.1163ZM27.25 14.9124L29.2147 15.4855C31.5624 16.1732 34.0954 15.4982 35.813 13.7153L36.9127 12.5819C37.5305 11.9578 37.2587 10.8881 36.4308 10.6461L32.25 9.5L27.25 14.9124Z" fill="#00AE58"/>
<path d="M19.5624 19.6897C21.092 21.2181 23.5971 21.0737 24.9461 19.3888L31.7269 10.8924C32.4857 9.94164 32.4134 8.56971 31.5462 7.70321C30.6791 6.83672 29.306 6.76448 28.3546 7.52266L19.8514 14.2982C18.1773 15.6581 18.0328 18.1613 19.5624 19.6897Z" fill="#FCD53F"/>
<path d="M26.3225 12.9275C26.7526 13.3575 27.4303 13.3575 27.8603 12.9275L33.1775 7.61037C33.6075 7.18031 33.6075 6.50261 33.1775 6.07255C32.7474 5.64248 32.0697 5.64248 31.6397 6.07255L26.3225 11.3897C25.8925 11.8197 25.8925 12.5104 26.3225 12.9275Z" fill="#00AE58"/>
</svg>
