<svg width="24" height="25" viewBox="0 0 24 25" fill="none" xmlns="http://www.w3.org/2000/svg">
<path d="M8.67997 16.9171C10.5638 15.5963 12.0452 14.141 13.1242 12.5514C14.2032 10.9617 14.7427 9.3847 14.7427 7.82037C14.7427 6.95247 14.5812 6.28395 14.2582 5.81481C13.9352 5.34568 13.504 5.11111 12.9645 5.11111C11.7267 5.11111 10.6676 6.04798 9.78725 7.9217C8.90668 9.79567 8.4664 12.0137 8.4664 14.5759C8.4664 15.0308 8.48352 15.452 8.51777 15.8398C8.55201 16.2278 8.60608 16.5869 8.67997 16.9171ZM10.8861 22C10.1824 22 9.54858 21.8493 8.98468 21.5479C8.42078 21.2467 7.94577 20.7775 7.55968 20.1405C6.99132 20.4689 6.40079 20.7666 5.7881 21.0338C5.17565 21.3008 4.54548 21.5632 3.8976 21.8213L3.15625 19.8456C3.79498 19.6021 4.41342 19.3409 5.01157 19.062C5.60971 18.7834 6.18569 18.487 6.73951 18.1729C6.60416 17.6569 6.50271 17.0871 6.43516 16.4636C6.36737 15.8404 6.33347 15.1679 6.33347 14.4461C6.33347 11.1134 6.95918 8.37254 8.2106 6.22367C9.46179 4.07456 11.0464 3 12.9645 3C14.1122 3 15.0438 3.43805 15.7592 4.31417C16.4747 5.19004 16.8324 6.38763 16.8324 7.90693C16.8324 9.87917 16.1729 11.8346 14.8539 13.7734C13.5347 15.7123 11.724 17.4495 9.42168 18.985C9.622 19.2934 9.8507 19.5248 10.1078 19.6792C10.3649 19.8335 10.6459 19.9107 10.9508 19.9107C11.6329 19.9107 12.3877 19.5372 13.215 18.7901C14.0423 18.043 14.7888 17.0497 15.4545 15.8102L17.3464 16.6951C17.2003 17.2654 17.1119 17.832 17.0811 18.3949C17.0506 18.9579 17.1346 19.446 17.3331 19.8593C17.6038 19.724 17.8884 19.5359 18.187 19.295C18.4856 19.0541 18.8172 18.7089 19.1817 18.2595L20.8435 19.5641C20.2336 20.3183 19.5998 20.9128 18.9421 21.3477C18.2844 21.7826 17.6694 22 17.0973 22C16.6409 22 16.2394 21.8082 15.8929 21.4247C15.5467 21.0414 15.2806 20.5178 15.0946 19.8537C14.4831 20.5304 13.8055 21.0573 13.0619 21.4342C12.3186 21.8114 11.5933 22 10.8861 22Z" fill="#9C9EA0"/>
</svg>
