<svg width="25" height="24" viewBox="0 0 25 24" fill="none" xmlns="http://www.w3.org/2000/svg">
<path fill-rule="evenodd" clip-rule="evenodd" d="M3.16797 5.00195C3.16797 4.44967 3.61568 4.00195 4.16797 4.00195H20.168C20.7203 4.00195 21.168 4.44967 21.168 5.00195C21.168 5.55424 20.7203 6.00195 20.168 6.00195H4.16797C3.61568 6.00195 3.16797 5.55424 3.16797 5.00195ZM3.16797 19.002C3.16797 18.4497 3.61568 18.002 4.16797 18.002H20.168C20.7203 18.002 21.168 18.4497 21.168 19.002C21.168 19.5542 20.7203 20.002 20.168 20.002H4.16797C3.61568 20.002 3.16797 19.5542 3.16797 19.002ZM4.16797 11.002C3.61568 11.002 3.16797 11.4497 3.16797 12.002C3.16797 12.5542 3.61568 13.002 4.16797 13.002H20.168C20.7203 13.002 21.168 12.5542 21.168 12.002C21.168 11.4497 20.7203 11.002 20.168 11.002H4.16797Z" fill="#ECEEF0"/>
</svg>
