<svg width="25" height="24" viewBox="0 0 25 24" fill="none" xmlns="http://www.w3.org/2000/svg">
<path fill-rule="evenodd" clip-rule="evenodd" d="M12.75 1.5C18.549 1.5 23.25 6.28473 23.25 12.1871V19.3118H23.2359C23.0812 21.098 21.5792 22.4996 19.749 22.4996C17.9189 22.4996 16.4168 21.098 16.2622 19.3118H16.2388C16.0842 21.098 14.5821 22.4996 12.752 22.4996C10.9218 22.4996 9.41974 21.098 9.26508 19.3118H9.23687C9.08221 21.098 7.58015 22.4996 5.75 22.4996C3.91985 22.4996 2.41779 21.098 2.26313 19.3118H2.25V19.0071V12.1871C2.25 6.28473 6.95101 1.5 12.75 1.5ZM11.3283 8.83123C11.3283 8.87795 11.326 8.92414 11.3216 8.96971C11.7644 8.79513 12.2468 8.69922 12.7516 8.69922C13.2567 8.69922 13.7394 8.79527 14.1825 8.9701C14.178 8.9244 14.1758 8.87808 14.1758 8.83123C14.1758 8.04423 14.8137 7.40625 15.6007 7.40625C16.3876 7.40625 17.0255 8.04423 17.0255 8.83123C17.0255 9.53223 16.5194 10.115 15.8527 10.234C16.3539 10.8901 16.6516 11.71 16.6516 12.5995C16.6516 14.7535 14.9055 16.4997 12.7516 16.4997C10.5977 16.4997 8.85156 14.7535 8.85156 12.5995C8.85156 11.71 9.14931 10.89 9.65058 10.2338C8.98424 10.1145 8.47852 9.53193 8.47852 8.83123C8.47852 8.04423 9.11646 7.40625 9.9034 7.40625C10.6903 7.40625 11.3283 8.04423 11.3283 8.83123ZM12.7516 13.5281C13.2644 13.5281 13.6801 13.1123 13.6801 12.5995C13.6801 12.0866 13.2644 11.6708 12.7516 11.6708C12.2387 11.6708 11.823 12.0866 11.823 12.5995C11.823 13.1123 12.2387 13.5281 12.7516 13.5281Z" fill="#ECEEF0"/>
</svg>
