<svg width="25" height="24" viewBox="0 0 25 24" fill="none" xmlns="http://www.w3.org/2000/svg">
<path fill-rule="evenodd" clip-rule="evenodd" d="M23.25 12.1871C23.25 6.28473 18.549 1.5 12.75 1.5C6.95101 1.5 2.25 6.28473 2.25 12.1871V19.0071V19.3118H2.26313C2.41779 21.098 3.91985 22.4996 5.75 22.4996C7.58015 22.4996 9.08221 21.098 9.23687 19.3118H9.26508C9.41974 21.098 10.9218 22.4996 12.752 22.4996C14.5821 22.4996 16.0842 21.098 16.2388 19.3118H16.2622C16.4168 21.098 17.9189 22.4996 19.749 22.4996C21.5792 22.4996 23.0812 21.098 23.2359 19.3118H23.25V12.1871Z" fill="#ECEEF0"/>
<path fill-rule="evenodd" clip-rule="evenodd" d="M9.9034 10.2562C10.6903 10.2562 11.3283 9.61822 11.3283 8.83123C11.3283 8.04423 10.6903 7.40625 9.9034 7.40625C9.11646 7.40625 8.47852 8.04423 8.47852 8.83123C8.47852 9.61822 9.11646 10.2562 9.9034 10.2562ZM15.6007 10.2562C16.3876 10.2562 17.0255 9.61822 17.0255 8.83123C17.0255 8.04423 16.3876 7.40625 15.6007 7.40625C14.8137 7.40625 14.1758 8.04423 14.1758 8.83123C14.1758 9.61822 14.8137 10.2562 15.6007 10.2562Z" fill="#131720"/>
<path fill-rule="evenodd" clip-rule="evenodd" d="M12.7516 13.5281C13.2644 13.5281 13.6801 13.1123 13.6801 12.5995C13.6801 12.0866 13.2644 11.6708 12.7516 11.6708C12.2387 11.6708 11.823 12.0866 11.823 12.5995C11.823 13.1123 12.2387 13.5281 12.7516 13.5281ZM12.7516 16.4997C14.9055 16.4997 16.6516 14.7535 16.6516 12.5995C16.6516 10.4454 14.9055 8.69922 12.7516 8.69922C10.5977 8.69922 8.85156 10.4454 8.85156 12.5995C8.85156 14.7535 10.5977 16.4997 12.7516 16.4997Z" fill="#131720"/>
</svg>
