<svg width="25" height="24" viewBox="0 0 25 24" fill="none" xmlns="http://www.w3.org/2000/svg">
<g clip-path="url(#clip0_855_1516)">
<path fill-rule="evenodd" clip-rule="evenodd" d="M12.5 23.502C18.8513 23.502 24 18.3532 24 12.002C24 5.65068 18.8513 0.501953 12.5 0.501953C6.14873 0.501953 1 5.65068 1 12.002C1 18.3532 6.14873 23.502 12.5 23.502ZM7.5 12.0059C7.5 15.2765 9.88784 17.346 12.7533 17.346C15.6331 17.346 17.1093 15.4357 17.5 13.8583L15.6331 13.2939C15.3582 14.2491 14.5043 15.3923 12.7533 15.3923C11.1035 15.3923 9.56946 14.1912 9.56946 12.0059C9.56946 9.67597 11.1903 8.57611 12.7243 8.57611C14.5043 8.57611 15.3003 9.6615 15.5463 10.6456L17.4276 10.0522C17.0224 8.38798 15.5608 6.65137 12.7243 6.65137C9.97467 6.65137 7.5 8.7353 7.5 12.0059Z" fill="#ECEEF0"/>
</g>
<defs>
<clipPath id="clip0_855_1516">
<rect width="24" height="24" fill="white" transform="translate(0.5 0.00195312)"/>
</clipPath>
</defs>
</svg>
