<svg width="25" height="24" viewBox="0 0 25 24" fill="none" xmlns="http://www.w3.org/2000/svg">
<path fill-rule="evenodd" clip-rule="evenodd" d="M21.834 8.91583V19.7518C21.834 20.304 21.3863 20.7518 20.834 20.7518H4.83398C4.2817 20.7518 3.83398 20.304 3.83398 19.7518V8.91583C3.83398 8.54644 4.03762 8.20714 4.36359 8.03338L12.3636 3.76891C12.6576 3.61219 13.0104 3.61219 13.3044 3.76891L21.3044 8.03338C21.6304 8.20714 21.834 8.54644 21.834 8.91583ZM1.83398 8.91583C1.83398 7.80766 2.44488 6.78975 3.42279 6.26847L11.4228 2.00401C12.3048 1.53382 13.3631 1.53382 14.2452 2.00401L22.2452 6.26847C23.2231 6.78975 23.834 7.80766 23.834 8.91583V19.7518C23.834 21.4086 22.4908 22.7518 20.834 22.7518H4.83398C3.17713 22.7518 1.83398 21.4086 1.83398 19.7518V8.91583ZM16.834 15.0018H8.83398V17.0018H16.834V15.0018Z" fill="#BABCBE"/>
</svg>
