<svg width="25" height="24" viewBox="0 0 25 24" fill="none" xmlns="http://www.w3.org/2000/svg">
<path fill-rule="evenodd" clip-rule="evenodd" d="M23.25 12.187C23.25 6.28473 18.549 1.5 12.75 1.5C6.95101 1.5 2.25 6.28473 2.25 12.187V19.0074V19.3117H2.2631C2.41762 21.0981 3.91975 22.4999 5.75 22.4999C7.58025 22.4999 9.08238 21.0981 9.2369 19.3117H9.2646C9.41911 21.0981 10.9212 22.4999 12.7515 22.4999C14.5817 22.4999 16.0839 21.0981 16.2384 19.3117H16.2617C16.4162 21.0981 17.9184 22.5 19.7486 22.5C21.5789 22.5 23.0811 21.0981 23.2355 19.3117H23.25V12.187Z" fill="#5F6163"/>
<path fill-rule="evenodd" clip-rule="evenodd" d="M9.9034 10.2562C10.6903 10.2562 11.3283 9.61822 11.3283 8.83123C11.3283 8.04423 10.6903 7.40625 9.9034 7.40625C9.11646 7.40625 8.47852 8.04423 8.47852 8.83123C8.47852 9.61822 9.11646 10.2562 9.9034 10.2562ZM15.6003 10.2562C16.3872 10.2562 17.0252 9.61822 17.0252 8.83123C17.0252 8.04423 16.3872 7.40625 15.6003 7.40625C14.8133 7.40625 14.1754 8.04423 14.1754 8.83123C14.1754 9.61822 14.8133 10.2562 15.6003 10.2562Z" fill="#131720"/>
<path fill-rule="evenodd" clip-rule="evenodd" d="M12.7516 13.5281C13.2644 13.5281 13.6801 13.1123 13.6801 12.5995C13.6801 12.0866 13.2644 11.6708 12.7516 11.6708C12.2387 11.6708 11.823 12.0866 11.823 12.5995C11.823 13.1123 12.2387 13.5281 12.7516 13.5281ZM12.7516 16.4997C14.9055 16.4997 16.6516 14.7535 16.6516 12.5995C16.6516 10.4454 14.9055 8.69922 12.7516 8.69922C10.5977 8.69922 8.85156 10.4454 8.85156 12.5995C8.85156 14.7535 10.5977 16.4997 12.7516 16.4997Z" fill="#131720"/>
</svg>
