<svg width="65" height="64" viewBox="0 0 65 64" fill="none" xmlns="http://www.w3.org/2000/svg">
<rect x="0.212891" width="64" height="64" rx="32" fill="#E64D3D"/>
<circle cx="20.4629" cy="42.5449" r="6" fill="#202223"/>
<circle cx="32.4629" cy="42.5449" r="6" fill="#202223"/>
<circle cx="44.4629" cy="42.5449" r="6" fill="#202223"/>
<path d="M32.4629 12.5439C42.404 12.5439 50.4629 20.6028 50.4629 30.5439V42.5439H14.4629V30.5439C14.4629 20.6028 22.5218 12.5439 32.4629 12.5439Z" fill="#202223"/>
<ellipse cx="27.6616" cy="23.9801" rx="2.39987" ry="2.40007" fill="white"/>
<ellipse cx="37.2632" cy="23.9801" rx="2.39987" ry="2.40007" fill="white"/>
<path fill-rule="evenodd" clip-rule="evenodd" d="M32.4633 32.4288C33.3607 32.4288 34.0882 31.7012 34.0882 30.8037C34.0882 29.9062 33.3607 29.1787 32.4633 29.1787C31.5659 29.1787 30.8384 29.9062 30.8384 30.8037C30.8384 31.7012 31.5659 32.4288 32.4633 32.4288ZM32.4633 37.6289C36.2325 37.6289 39.288 34.5732 39.288 30.8037C39.288 27.0343 36.2325 23.9785 32.4633 23.9785C28.6942 23.9785 25.6387 27.0343 25.6387 30.8037C25.6387 34.5732 28.6942 37.6289 32.4633 37.6289Z" fill="#5D5D5D"/>
</svg>
