<svg width="25" height="24" viewBox="0 0 25 24" fill="none" xmlns="http://www.w3.org/2000/svg">
<path fill-rule="evenodd" clip-rule="evenodd" d="M3.25 5C3.25 4.44772 3.69772 4 4.25 4H20.25C20.8023 4 21.25 4.44772 21.25 5C21.25 5.55228 20.8023 6 20.25 6H4.25C3.69772 6 3.25 5.55228 3.25 5ZM3.25 19C3.25 18.4477 3.69772 18 4.25 18H20.25C20.8023 18 21.25 18.4477 21.25 19C21.25 19.5523 20.8023 20 20.25 20H4.25C3.69772 20 3.25 19.5523 3.25 19ZM4.25 11C3.69772 11 3.25 11.4477 3.25 12C3.25 12.5523 3.69772 13 4.25 13H20.25C20.8023 13 21.25 12.5523 21.25 12C21.25 11.4477 20.8023 11 20.25 11H4.25Z" fill="#737577"/>
</svg>
