<svg width="25" height="24" viewBox="0 0 25 24" fill="none" xmlns="http://www.w3.org/2000/svg">
<g clip-path="url(#clip0_855_1588)">
<circle cx="12.5" cy="12.002" r="10.5" stroke="#BABCBE" stroke-width="2"/>
<path d="M12.7533 17.346C9.88784 17.346 7.5 15.2765 7.5 12.0059C7.5 8.7353 9.97467 6.65137 12.7243 6.65137C15.5608 6.65137 17.0224 8.38798 17.4276 10.0522L15.5463 10.6456C15.3003 9.6615 14.5043 8.57611 12.7243 8.57611C11.1903 8.57611 9.56946 9.67597 9.56946 12.0059C9.56946 14.1912 11.1035 15.3923 12.7533 15.3923C14.5043 15.3923 15.3582 14.2491 15.6331 13.2939L17.5 13.8583C17.1093 15.4357 15.6331 17.346 12.7533 17.346Z" fill="#BABCBE"/>
</g>
<defs>
<clipPath id="clip0_855_1588">
<rect width="24" height="24" fill="white" transform="translate(0.5 0.00195312)"/>
</clipPath>
</defs>
</svg>
